<?xml version="1.0" encoding="UTF-8" standalone="no"?>
<!DOCTYPE svg PUBLIC "-//W3C//DTD SVG 1.1//EN" "http://www.w3.org/Graphics/SVG/1.1/DTD/svg11.dtd">
<svg width="100%" height="100%" viewBox="0 0 3840 2160" version="1.1" xmlns="http://www.w3.org/2000/svg" xmlns:xlink="http://www.w3.org/1999/xlink" xml:space="preserve" xmlns:serif="http://www.serif.com/" style="fill-rule:evenodd;clip-rule:evenodd;stroke-linejoin:round;stroke-miterlimit:2;">
    <g transform="matrix(5.833543,0,0,5.833543,142.776097,1204.605647)">
        <path d="M0,-199.128L1.056,-196.488C3.168,-197.376 9,-199.848 12.696,-199.848C15.72,-199.848 17.4,-198.048 17.4,-195.672C17.4,-191.16 12.12,-189.336 5.88,-189.168L6.936,-186.696C14.64,-187.104 20.016,-190.128 20.016,-195.648C20.016,-199.752 16.824,-202.104 12.768,-202.104C9.312,-202.104 4.632,-200.424 2.712,-199.824C1.848,-199.56 0.84,-199.272 0,-199.128M15.12,-174.936L12.936,-176.904C12.6,-176.424 11.952,-175.704 11.376,-175.152C9.792,-173.568 6.36,-170.832 4.56,-169.32C2.328,-167.472 2.088,-166.344 4.368,-164.424C6.576,-162.624 10.056,-159.6 11.64,-157.992C12.264,-157.368 12.864,-156.696 13.464,-156.072L15.624,-158.064C13.176,-160.488 8.856,-163.896 6.888,-165.552C5.472,-166.752 5.472,-167.064 6.816,-168.216C8.496,-169.632 11.76,-172.176 13.344,-173.496C13.8,-173.88 14.52,-174.504 15.12,-174.936M6.696,-147.648L4.08,-147.744C4.056,-147.12 4.008,-146.328 3.912,-145.536C3.6,-143.4 3.192,-140.184 3.192,-137.976C3.192,-136.416 3.336,-135.024 3.456,-134.136L5.784,-134.304C5.64,-135.456 5.616,-136.224 5.688,-137.016C5.904,-140.112 8.496,-144.336 11.376,-144.336C13.632,-144.336 14.856,-141.96 14.856,-138.264C14.856,-132.456 11.016,-130.536 5.856,-129.768L7.248,-127.608C13.272,-128.712 17.352,-131.712 17.352,-138.288C17.352,-143.352 14.976,-146.52 11.784,-146.52C8.952,-146.52 6.696,-143.976 5.64,-141.84C5.784,-143.328 6.264,-146.184 6.696,-147.648M16.32,-117.792L14.808,-117.168C15.432,-116.28 16.224,-114.864 16.68,-113.904L18.24,-114.576C17.784,-115.488 16.92,-116.952 16.32,-117.792M18.984,-118.8L17.496,-118.176C18.144,-117.288 18.936,-115.92 19.44,-114.912L20.952,-115.584C20.52,-116.448 19.632,-117.936 18.984,-118.8M11.208,-105.552L8.952,-105.768C8.76,-104.808 8.592,-103.8 8.592,-102.816C8.592,-100.488 10.68,-99.216 14.496,-99.216C16.272,-99.216 17.856,-99.384 19.152,-99.552L19.224,-101.976C17.688,-101.664 16.056,-101.496 14.52,-101.496C11.52,-101.496 10.872,-102.432 10.872,-103.512C10.872,-104.088 11.016,-104.832 11.208,-105.552M8.52,-118.512L5.688,-118.728C5.712,-118.224 5.664,-117.36 5.568,-116.592C5.52,-116.16 5.4,-115.56 5.28,-114.864C4.464,-114.792 3.696,-114.768 2.952,-114.768C2.04,-114.768 1.224,-114.792 0.072,-114.936L0.144,-112.608C0.96,-112.536 1.824,-112.512 2.904,-112.512C3.48,-112.512 4.128,-112.536 4.8,-112.56C4.632,-111.816 4.44,-111.024 4.248,-110.328C3.36,-107.016 1.656,-102.168 0.216,-99.768L2.856,-98.88C4.128,-101.544 5.688,-106.392 6.552,-109.704C6.816,-110.712 7.08,-111.768 7.296,-112.776C8.904,-112.968 10.56,-113.232 12.024,-113.568L12.024,-115.92C10.656,-115.584 9.216,-115.32 7.8,-115.128C7.896,-115.632 7.992,-116.088 8.064,-116.496C8.16,-116.952 8.376,-117.936 8.52,-118.512M10.368,-111.36L10.368,-109.152C11.832,-109.32 13.272,-109.416 14.808,-109.416C16.224,-109.416 17.616,-109.272 18.816,-109.104L18.864,-111.384C17.544,-111.528 16.128,-111.576 14.76,-111.576C13.248,-111.576 11.64,-111.504 10.368,-111.36M6.6,-89.808L3.576,-89.832C3.768,-89.064 3.84,-88.08 3.84,-87.096C3.84,-84.84 3.6,-78.768 3.6,-75.432C3.6,-71.52 6,-69.984 9.6,-69.984C14.856,-69.984 18.024,-73.032 19.584,-75.264L17.88,-77.328C16.2,-74.832 13.752,-72.48 9.624,-72.48C7.584,-72.48 6.048,-73.344 6.048,-75.84C6.048,-79.104 6.24,-84.504 6.336,-87.096C6.384,-87.96 6.48,-88.944 6.6,-89.808M9.408,-61.368C9.48,-61.008 9.528,-60.288 9.528,-59.88L9.528,-58.464L8.52,-58.464C7.032,-58.464 4.2,-58.704 2.616,-58.968L2.64,-56.808C4.152,-56.616 6.984,-56.4 8.544,-56.4L9.504,-56.4C9.48,-55.464 9.48,-54.456 9.48,-53.52L8.28,-53.52C6.864,-53.52 4.104,-53.664 2.472,-53.952L2.52,-51.72C4.152,-51.528 6.768,-51.408 8.256,-51.408L9.528,-51.408C9.552,-50.544 9.6,-49.584 9.624,-48.672C9.072,-48.72 8.496,-48.768 7.896,-48.768C4.392,-48.768 2.28,-47.232 2.28,-44.976C2.28,-42.6 4.2,-41.304 7.752,-41.304C10.824,-41.304 12.12,-42.888 12.12,-44.712C12.12,-45.024 12.096,-45.456 12.096,-45.912C14.232,-45.048 16.008,-43.704 17.352,-42.48L18.72,-44.592C17.376,-45.696 15.024,-47.352 11.976,-48.192C11.904,-49.248 11.856,-50.376 11.808,-51.456C14.064,-51.528 16.008,-51.696 18.168,-51.96L18.192,-54.192C16.176,-53.904 14.088,-53.688 11.76,-53.592L11.76,-56.496C14.04,-56.592 16.224,-56.808 17.952,-57.024L17.976,-59.184C15.864,-58.848 13.8,-58.632 11.784,-58.536C11.784,-59.064 11.784,-59.472 11.808,-59.76C11.832,-60.432 11.88,-60.936 11.952,-61.368L9.408,-61.368ZM4.536,-45.096C4.536,-46.056 5.616,-46.824 7.608,-46.824C8.328,-46.824 9.024,-46.752 9.72,-46.632C9.744,-46.08 9.744,-45.624 9.744,-45.288C9.744,-43.8 8.76,-43.416 7.44,-43.416C5.424,-43.416 4.536,-44.088 4.536,-45.096M13.176,-32.52L10.44,-32.52C10.488,-32.256 10.584,-31.56 10.632,-30.792C10.656,-30.528 10.68,-30.096 10.68,-29.592C7.32,-29.544 2.952,-29.424 0.288,-29.4L0.36,-27.12C3.288,-27.288 7.128,-27.456 10.704,-27.504C10.728,-26.832 10.728,-26.136 10.728,-25.512C10.32,-25.632 9.912,-25.68 9.432,-25.68C7.056,-25.68 5.04,-23.904 5.04,-21.432C5.04,-18.744 7.104,-17.328 9,-17.328C9.6,-17.328 10.152,-17.448 10.632,-17.664C9.48,-15.888 7.344,-14.832 4.584,-14.208L6.576,-12.24C12.168,-13.872 13.824,-17.568 13.824,-20.712C13.824,-21.912 13.56,-22.992 13.008,-23.832C13.008,-24.888 13.008,-26.256 12.984,-27.528C16.392,-27.528 18.648,-27.456 20.04,-27.384L20.064,-29.616C18.864,-29.64 15.696,-29.616 13.008,-29.616C13.008,-30.096 13.008,-30.504 13.032,-30.792C13.032,-31.128 13.104,-32.208 13.176,-32.52M7.272,-21.48C7.272,-22.872 8.304,-23.688 9.408,-23.688C10.2,-23.688 10.872,-23.328 11.232,-22.536C11.52,-20.328 10.632,-19.392 9.432,-19.392C8.256,-19.392 7.272,-20.16 7.272,-21.48M17.232,-4.416C15.216,-4.416 13.536,-2.736 13.536,-0.72C13.536,1.32 15.216,2.976 17.232,2.976C19.272,2.976 20.928,1.32 20.928,-0.72C20.928,-2.736 19.272,-4.416 17.232,-4.416M17.232,1.56C16.008,1.56 14.976,0.528 14.976,-0.72C14.976,-1.968 16.008,-2.976 17.232,-2.976C18.504,-2.976 19.512,-1.968 19.512,-0.72C19.512,0.528 18.504,1.56 17.232,1.56" style="fill:rgb(36,24,19);fill-rule:nonzero;"/>
    </g>
    <g transform="matrix(5.833543,0,0,5.833543,475.288053,1417.273294)">
        <path d="M0,-234.264C1.968,-231.624 3.696,-227.928 4.2,-225.48L6.432,-226.56C5.856,-229.056 4.104,-232.608 2.016,-235.296L0,-234.264ZM-13.776,-234.432C-14.088,-231.312 -14.832,-228.024 -16.344,-225.936L-14.28,-224.736C-12.648,-227.04 -11.952,-230.76 -11.592,-234L-13.776,-234.432ZM-9.528,-241.152C-6.696,-240.072 -3.288,-238.272 -1.464,-236.856L0,-238.824C-1.896,-240.12 -5.28,-241.896 -8.088,-242.856L-9.528,-241.152ZM-9.672,-236.256L-9.672,-224.592C-9.672,-221.976 -8.904,-221.232 -6.144,-221.232L-1.848,-221.232C0.864,-221.232 1.488,-222.552 1.776,-227.064C1.176,-227.184 0.24,-227.616 -0.288,-228.024C-0.48,-224.088 -0.696,-223.272 -2.016,-223.272L-5.904,-223.272C-7.128,-223.272 -7.368,-223.464 -7.368,-224.592L-7.368,-236.256L-9.672,-236.256ZM-6.096,-210.36L-6.072,-207.96C-3.336,-207.696 1.104,-207.696 3.792,-207.96L3.792,-210.384C1.344,-210.048 -3.384,-209.952 -6.096,-210.36M-4.752,-200.568L-6.888,-200.784C-7.152,-199.608 -7.296,-198.72 -7.296,-197.88C-7.296,-195.576 -5.424,-194.208 -1.44,-194.208C1.104,-194.208 3.024,-194.376 4.536,-194.664L4.464,-197.184C2.496,-196.752 0.72,-196.584 -1.368,-196.584C-4.224,-196.584 -5.064,-197.424 -5.064,-198.48C-5.064,-199.128 -4.944,-199.752 -4.752,-200.568M-10.176,-212.064L-12.816,-212.28C-12.84,-211.68 -12.936,-210.936 -13.032,-210.336C-13.272,-208.44 -14.04,-204.456 -14.04,-200.952C-14.04,-197.76 -13.608,-195 -13.152,-193.344L-10.992,-193.488C-11.016,-193.776 -11.04,-194.112 -11.04,-194.376C-11.064,-194.64 -10.992,-195.096 -10.92,-195.456C-10.704,-196.632 -9.864,-199.128 -9.24,-200.928L-10.464,-201.864C-10.824,-201 -11.304,-199.872 -11.688,-198.912C-11.784,-199.56 -11.832,-200.568 -11.832,-201.408C-11.832,-203.928 -11.064,-208.344 -10.68,-210.264C-10.584,-210.696 -10.344,-211.632 -10.176,-212.064M1.248,-183.072L3.504,-183.072C3.168,-182.232 2.736,-181.32 2.28,-180.384C3.624,-179.424 4.176,-178.704 4.176,-178.104C4.2,-177.744 4.056,-177.456 3.792,-177.312C3.648,-177.24 3.408,-177.216 3.168,-177.192C2.784,-177.168 2.256,-177.192 1.632,-177.24C1.944,-176.808 2.16,-176.16 2.184,-175.68C2.76,-175.632 3.48,-175.656 3.936,-175.704C4.296,-175.752 4.728,-175.872 5.016,-176.064C5.616,-176.424 5.952,-177.024 5.952,-177.864C5.952,-178.704 5.376,-179.664 4.104,-180.672C4.728,-181.776 5.352,-182.904 5.928,-184.104L4.608,-184.752L4.344,-184.656L-0.576,-184.656L-0.576,-174.816L1.248,-174.816L1.248,-183.072ZM-6.528,-179.16L-3.384,-179.16L-4.632,-178.488C-4.32,-178.224 -4.008,-177.912 -3.72,-177.6L-6.528,-177.312L-6.528,-179.16ZM-3.36,-182.496L-6.528,-182.496L-6.528,-183.432L-3.36,-183.432L-3.36,-182.496ZM-6.528,-181.296L-3.36,-181.296L-3.36,-180.384L-6.528,-180.384L-6.528,-181.296ZM-9.36,-177.048L-8.976,-175.44C-7.152,-175.656 -4.896,-175.968 -2.616,-176.304C-2.376,-175.968 -2.16,-175.632 -2.016,-175.32L-0.648,-176.112C-1.128,-177.024 -2.256,-178.296 -3.312,-179.16L-1.632,-179.16L-1.632,-184.632L-8.28,-184.632L-8.28,-177.144L-9.36,-177.048ZM0.528,-167.064L-10.248,-167.064L-10.248,-167.976L0.528,-167.976L0.528,-167.064ZM-10.248,-166.032L0.528,-166.032L0.528,-165.096L-10.248,-165.096L-10.248,-166.032ZM-12.288,-163.32L-10.248,-163.32L-10.248,-163.92L0.528,-163.92L0.528,-163.344L2.688,-163.344L2.688,-169.176L-12.288,-169.176L-12.288,-163.32ZM-7.656,-171.504L-7.272,-171.624C-7.416,-172.008 -7.752,-172.56 -8.112,-172.992L-1.704,-172.992C-1.992,-172.488 -2.352,-171.936 -2.664,-171.504L-7.656,-171.504ZM0.36,-172.992L3.672,-172.992L3.672,-174.408L-4.032,-174.408L-4.032,-175.656L-6.12,-175.656L-6.12,-174.408L-12.816,-174.408C-10.68,-175.632 -9.072,-177.408 -8.328,-179.904L-10.056,-180.144C-10.176,-179.712 -10.32,-179.328 -10.512,-178.944L-12.24,-178.824C-11.136,-180.024 -9.984,-181.488 -9.072,-182.784L-10.608,-183.48C-11.016,-182.808 -11.52,-182.04 -12.096,-181.272C-12.384,-181.512 -12.696,-181.776 -13.032,-182.04C-12.408,-182.832 -11.712,-183.84 -11.088,-184.776L-12.672,-185.4C-13.008,-184.656 -13.584,-183.672 -14.136,-182.832C-14.376,-183 -14.616,-183.144 -14.832,-183.288L-15.768,-182.04C-14.904,-181.44 -13.848,-180.624 -13.128,-179.928C-13.488,-179.472 -13.848,-179.04 -14.208,-178.656C-14.88,-178.608 -15.504,-178.56 -16.056,-178.536L-15.72,-176.904C-14.472,-177.048 -13.08,-177.216 -11.592,-177.408C-12.672,-176.232 -14.16,-175.392 -15.912,-174.84C-15.576,-174.504 -15.048,-173.808 -14.856,-173.448C-14.28,-173.664 -13.704,-173.928 -13.176,-174.216L-13.176,-172.992L-9.36,-172.992L-10.176,-172.752C-9.84,-172.392 -9.528,-171.912 -9.312,-171.504L-15.648,-171.504L-15.648,-169.992L5.784,-169.992L5.784,-171.504L-0.576,-171.504C-0.216,-171.912 0.192,-172.392 0.6,-172.92L0.36,-172.992ZM0.12,-153.792L-2.064,-155.76C-2.4,-155.28 -3.048,-154.56 -3.624,-154.008C-5.208,-152.424 -8.64,-149.688 -10.44,-148.176C-12.672,-146.328 -12.912,-145.2 -10.632,-143.28C-8.424,-141.48 -4.944,-138.456 -3.36,-136.848C-2.736,-136.224 -2.136,-135.552 -1.536,-134.928L0.624,-136.92C-1.824,-139.344 -6.144,-142.752 -8.112,-144.408C-9.528,-145.608 -9.528,-145.92 -8.184,-147.072C-6.504,-148.488 -3.24,-151.032 -1.656,-152.352C-1.2,-152.736 -0.48,-153.36 0.12,-153.792M0.24,-112.392L-9.912,-112.392L-9.912,-114.504L0.24,-114.504L0.24,-112.392ZM-9.912,-110.664L0.24,-110.664L0.24,-108.432L-9.912,-108.432L-9.912,-110.664ZM-12.144,-105.72L-9.912,-105.72L-9.912,-106.56L0.24,-106.56L0.24,-105.768L2.592,-105.768L2.592,-116.4L-12.144,-116.4L-12.144,-105.72ZM-0.96,-123.696C-1.296,-122.664 -1.872,-121.296 -2.328,-120.432L-1.272,-120.168L-8.616,-120.168L-7.464,-120.432C-7.656,-121.32 -8.16,-122.688 -8.808,-123.696L-0.96,-123.696ZM-0.072,-120.168C0.432,-121.032 1.008,-122.232 1.56,-123.408L0.216,-123.696L4.536,-123.696L4.536,-125.712L-3.84,-125.712L-3.84,-127.752L-6.192,-127.752L-6.192,-125.712L-14.232,-125.712L-14.232,-123.696L-9.624,-123.696L-11.088,-123.408C-10.512,-122.424 -10.032,-121.128 -9.816,-120.168L-15.576,-120.168L-15.576,-118.176L5.664,-118.176L5.664,-120.168L-0.072,-120.168ZM-3.984,-93.936L-2.256,-95.256C-3.096,-96.144 -4.896,-97.656 -5.688,-98.256L-7.416,-97.032C-6.432,-96.312 -4.872,-94.8 -3.984,-93.936M-10.968,-96.216L-13.416,-95.232C-13.008,-94.704 -12.48,-93.912 -12.168,-93.384C-11.784,-92.736 -11.376,-91.944 -10.968,-91.056C-11.832,-90.672 -12.672,-90.288 -13.44,-90C-13.848,-89.832 -14.76,-89.496 -15.552,-89.328L-14.424,-86.904C-13.392,-87.36 -11.808,-88.2 -10.056,-89.064C-9.792,-88.512 -9.552,-87.936 -9.288,-87.336C-8.016,-84.36 -6.84,-80.496 -6.096,-77.64L-3.528,-78.288C-4.32,-80.928 -5.952,-85.56 -7.152,-88.344C-7.392,-88.92 -7.656,-89.496 -7.944,-90.072C-5.328,-91.296 -2.568,-92.328 -0.624,-92.328C1.464,-92.328 2.52,-91.2 2.52,-89.88C2.52,-88.2 1.368,-86.976 -0.864,-86.976C-2.016,-86.976 -3.192,-87.336 -4.152,-87.768L-4.224,-85.416C-3.336,-85.08 -1.968,-84.744 -0.648,-84.744C3.024,-84.744 4.968,-86.832 4.968,-89.808C4.968,-92.424 2.88,-94.464 -0.552,-94.464C-3,-94.464 -6.024,-93.264 -8.832,-92.016C-9.264,-92.904 -9.696,-93.744 -10.08,-94.488C-10.344,-94.92 -10.776,-95.784 -10.968,-96.216M-11.184,-70.032C-12.336,-66.552 -14.208,-63.048 -16.272,-60.792C-15.888,-60.288 -15.24,-59.064 -15.024,-58.536C-14.424,-59.256 -13.848,-60.024 -13.248,-60.888L-13.248,-48.168L-11.112,-48.168L-11.112,-64.584C-10.344,-66.168 -9.624,-67.8 -9.096,-69.432L-11.184,-70.032ZM5.856,-63.456L5.856,-65.568L-1.008,-65.568L-1.008,-70.032L-3.192,-70.032L-3.192,-65.568L-9.624,-65.568L-9.624,-63.456L-4.368,-63.456C-5.784,-59.52 -8.136,-55.608 -10.68,-53.496C-10.2,-53.112 -9.432,-52.344 -9.096,-51.792C-6.744,-54.048 -4.656,-57.672 -3.192,-61.608L-3.192,-54.384L-6.768,-54.384L-6.768,-52.368L-3.192,-52.368L-3.192,-48.264L-1.008,-48.264L-1.008,-52.368L2.544,-52.368L2.544,-54.384L-1.008,-54.384L-1.008,-61.752C0.408,-57.84 2.472,-54.096 4.728,-51.864C5.136,-52.464 5.88,-53.232 6.432,-53.64C3.96,-55.728 1.608,-59.592 0.24,-63.456L5.856,-63.456ZM-15.024,-20.664C-14.088,-21.96 -13.824,-24.192 -13.728,-26.328L-15,-26.592C-15.096,-24.552 -15.384,-22.512 -16.224,-21.312L-15.024,-20.664ZM-13.32,-26.136C-13.104,-24.72 -12.984,-22.944 -13.056,-21.744L-11.928,-21.912C-11.88,-23.064 -12,-24.864 -12.264,-26.256L-13.32,-26.136ZM-9.12,-29.64L-9.12,-31.512L-6.744,-31.512L-6.744,-33.264L-9.12,-33.264L-9.12,-35.088L-6.744,-35.088L-6.744,-35.304C-6.384,-34.848 -5.952,-34.08 -5.736,-33.6C-5.064,-34.008 -4.392,-34.512 -3.768,-35.064L-3.768,-33.696L-1.104,-33.696L-1.104,-32.04L-5.352,-32.04L-5.352,-25.968L-1.656,-25.968C-2.304,-24.096 -3.72,-22.296 -6.648,-20.904C-6.312,-22.08 -6.12,-24.408 -5.928,-28.824C-5.904,-29.064 -5.904,-29.64 -5.904,-29.64L-9.12,-29.64ZM-12.96,-31.512L-10.944,-31.512L-10.944,-29.64L-12.96,-29.64L-12.96,-31.512ZM-10.944,-33.264L-12.96,-33.264L-12.96,-35.088L-10.944,-35.088L-10.944,-33.264ZM-10.944,-36.84L-12.96,-36.84L-12.96,-38.568L-10.944,-38.568L-10.944,-36.84ZM-3.336,-35.448C-2.04,-36.672 -0.912,-38.088 -0.216,-39.384C0.6,-38.04 1.824,-36.624 3.168,-35.448L-3.336,-35.448ZM3.36,-30.36L3.36,-27.648L0.768,-27.648C0.864,-28.392 0.888,-29.136 0.888,-29.88L0.888,-30.36L3.36,-30.36ZM-3.504,-27.648L-3.504,-30.36L-1.104,-30.36L-1.104,-29.904C-1.104,-29.16 -1.128,-28.416 -1.248,-27.648L-3.504,-27.648ZM5.28,-25.968L5.28,-32.04L0.888,-32.04L0.888,-33.696L3.576,-33.696L3.576,-35.088C4.152,-34.608 4.752,-34.176 5.328,-33.816C5.616,-34.44 6.072,-35.232 6.456,-35.736C4.344,-36.84 2.112,-39.072 0.696,-41.352L-1.272,-41.352C-2.304,-39.24 -4.488,-36.72 -6.744,-35.376L-6.744,-36.84L-9.12,-36.84L-9.12,-38.568L-6.24,-38.568L-6.24,-40.416L-14.832,-40.416L-14.832,-27.864L-7.848,-27.864C-7.896,-26.496 -7.968,-25.416 -8.04,-24.528C-8.28,-25.296 -8.712,-26.256 -9.12,-27L-10.08,-26.688C-9.576,-25.704 -9.072,-24.432 -8.904,-23.568L-8.088,-23.88C-8.232,-22.32 -8.4,-21.6 -8.616,-21.336C-8.784,-21.096 -8.976,-21.048 -9.24,-21.048C-9.552,-21.048 -10.2,-21.048 -10.944,-21.12C-10.656,-20.664 -10.488,-19.896 -10.44,-19.368C-9.624,-19.344 -8.832,-19.344 -8.328,-19.416C-7.776,-19.464 -7.368,-19.656 -7.008,-20.112C-6.888,-20.256 -6.768,-20.472 -6.672,-20.784C-6.24,-20.424 -5.64,-19.728 -5.424,-19.296C-2.328,-20.784 -0.72,-22.704 0.096,-24.744C1.104,-22.344 2.712,-20.424 4.896,-19.368C5.208,-19.896 5.856,-20.736 6.312,-21.12C4.152,-22.008 2.496,-23.784 1.56,-25.968L5.28,-25.968ZM-9.72,-22.704C-9.792,-23.712 -10.176,-25.32 -10.608,-26.52L-11.616,-26.328C-11.232,-25.104 -10.872,-23.496 -10.8,-22.464L-9.72,-22.704ZM-7.824,-11.52C-7.872,-10.656 -8.064,-9.672 -8.352,-8.712C-8.832,-8.688 -9.312,-8.688 -9.744,-8.688C-10.872,-8.688 -12.552,-8.784 -13.8,-8.976L-13.8,-6.744C-12.48,-6.648 -10.848,-6.6 -9.864,-6.6L-9.192,-6.6C-10.152,-4.608 -11.76,-2.304 -14.496,0.264L-12.456,1.776C-11.688,0.768 -10.992,-0.072 -10.32,-0.744C-9.336,-1.68 -7.848,-2.448 -6.432,-2.448C-5.592,-2.448 -4.824,-2.088 -4.488,-1.272C-7.2,0.12 -10.056,1.968 -10.056,4.848C-10.056,7.776 -7.344,8.592 -3.816,8.592C-1.704,8.592 1.032,8.4 2.712,8.184L2.784,5.784C0.72,6.168 -1.848,6.384 -3.744,6.384C-6.12,6.384 -7.632,6.048 -7.632,4.488C-7.632,3.096 -6.384,2.016 -4.344,0.912C-4.368,2.064 -4.392,3.408 -4.464,4.224L-2.208,4.224C-2.232,3.072 -2.256,1.224 -2.28,-0.12C-0.648,-0.888 0.888,-1.488 2.088,-1.944C2.808,-2.232 3.816,-2.616 4.488,-2.808L3.528,-5.016C2.784,-4.632 2.088,-4.32 1.296,-3.984C0.192,-3.48 -1.032,-3 -2.472,-2.304C-2.928,-3.6 -4.152,-4.272 -5.616,-4.272C-6.528,-4.272 -7.848,-4.008 -8.616,-3.552C-7.968,-4.464 -7.32,-5.592 -6.816,-6.672C-4.272,-6.768 -1.368,-6.96 0.912,-7.32L0.912,-9.48C-1.224,-9.12 -3.672,-8.904 -6,-8.784C-5.664,-9.816 -5.496,-10.68 -5.352,-11.328L-7.824,-11.52Z" style="fill:rgb(36,24,19);fill-rule:nonzero;"/>
    </g>
    <g transform="matrix(5.833543,0,0,5.833543,142.776097,-604.821747)">
        <path d="M92.928,113.688L87.24,113.688L87.24,112.536L92.928,112.536L92.928,113.688ZM87.192,116.28C87.216,115.872 87.24,115.464 87.24,115.08L92.928,115.08L92.928,116.28L87.192,116.28ZM93.336,123.12L88.464,123.12L88.464,120.768L93.336,120.768L93.336,123.12ZM94.92,117.888L94.92,110.928L85.296,110.928L85.296,114.624C85.296,117.336 85.056,121.104 82.848,123.84C83.256,124.08 84.048,124.8 84.36,125.184C85.416,123.888 86.112,122.28 86.544,120.624L86.544,125.664L88.464,125.664L88.464,124.8L93.336,124.8L93.336,125.52L95.304,125.52L95.304,119.136L86.88,119.136C86.952,118.728 87,118.296 87.048,117.888L94.92,117.888ZM88.176,108.264C89.016,107.448 89.712,106.608 90.312,105.864C91.176,106.56 92.136,107.424 92.976,108.264L88.176,108.264ZM88.968,103.944C87.816,105.864 85.704,108.216 82.824,109.92C83.256,110.232 83.928,111 84.192,111.48C85.488,110.664 86.592,109.776 87.552,108.864L87.552,109.824L93.24,109.824L93.24,108.504C93.792,109.08 94.272,109.584 94.656,110.016L96.12,108.336C94.92,107.112 92.712,105.24 90.984,103.944L88.968,103.944ZM98.76,106.56L96.672,106.56L96.672,119.808L98.76,119.808L98.76,106.56ZM101.928,104.16L101.928,122.904C101.928,123.312 101.736,123.456 101.352,123.48C100.872,123.48 99.48,123.504 97.968,123.432C98.256,124.08 98.592,125.088 98.688,125.688C100.8,125.712 102.144,125.64 102.96,125.28C103.8,124.896 104.088,124.248 104.088,122.928L104.088,104.16L101.928,104.16ZM96.048,137.256L96.048,139.848L89.448,139.848L89.448,141.744L104.76,141.744L104.76,139.848L98.256,139.848L98.256,137.256L103.752,137.256L103.752,135.336L98.256,135.336L98.256,132.48L96.048,132.48L96.048,135.336L93.744,135.336C94.056,134.664 94.368,133.944 94.608,133.224L92.52,132.768C91.824,134.928 90.576,137.088 89.088,138.48C89.616,138.72 90.552,139.224 90.984,139.56C91.56,138.912 92.16,138.12 92.688,137.256L96.048,137.256ZM93.672,145.176L100.848,145.176L100.848,148.368L93.672,148.368L93.672,145.176ZM103.176,143.376L91.488,143.376L91.488,150.192L103.176,150.192L103.176,143.376ZM89.184,136.704C88.368,135.552 86.568,134.064 85.08,133.032L83.424,134.376C84.936,135.432 86.664,137.04 87.432,138.168L89.184,136.704ZM88.536,141.792L83.28,141.792L83.28,143.856L86.352,143.856L86.352,149.496C85.224,150.408 83.952,151.296 82.872,151.968L84.024,154.272C85.272,153.24 86.424,152.28 87.552,151.296C89.064,153.144 91.128,153.936 94.176,154.056C96.912,154.176 101.736,154.128 104.448,154.008C104.568,153.312 104.928,152.256 105.192,151.728C102.192,151.92 96.864,151.992 94.2,151.896C91.56,151.8 89.592,151.032 88.536,149.376L88.536,141.792ZM103.944,172.776C103.944,167.856 100.368,163.896 94.704,163.896C88.824,163.896 84.216,168.432 84.216,173.664C84.216,177.6 86.328,180.216 88.656,180.216C91.008,180.216 92.928,177.552 94.344,172.752C95.016,170.52 95.424,168.24 95.712,166.104C99.384,166.56 101.472,169.296 101.472,172.68C101.472,176.496 98.784,178.704 95.76,179.4C95.184,179.52 94.488,179.64 93.672,179.736L95.064,181.92C100.8,181.104 103.944,177.624 103.944,172.776M86.568,173.448C86.568,170.544 89.04,166.848 93.288,166.176C93.024,168.24 92.616,170.376 92.04,172.248C90.936,175.872 89.808,177.408 88.728,177.408C87.744,177.408 86.568,176.16 86.568,173.448M104.472,197.184L104.472,194.928L95.184,194.928L95.184,190.08L92.832,190.08L92.832,194.928L83.64,194.928L83.64,197.184L91.488,197.184C89.52,201.096 86.28,204.768 82.8,206.616C83.28,207.072 84.024,207.912 84.384,208.464C87.744,206.448 90.72,203.088 92.832,199.2L92.832,205.584L88.44,205.584L88.44,207.84L92.832,207.84L92.832,212.088L95.184,212.088L95.184,207.84L99.48,207.84L99.48,205.584L95.184,205.584L95.184,199.176C97.296,203.064 100.248,206.448 103.68,208.392C104.04,207.792 104.832,206.88 105.36,206.424C101.76,204.6 98.496,201.048 96.552,197.184L104.472,197.184ZM99.336,224.064L99.336,226.848L101.376,226.848L101.376,224.064L104.688,224.064L104.688,222.36L96.792,222.36C96.816,222.144 96.816,221.952 96.816,221.76L96.816,221.328C99.144,221.16 101.736,220.8 103.608,220.296L102.168,218.952C100.8,219.336 98.568,219.672 96.456,219.888L94.848,219.504L94.848,221.664C94.848,222.984 94.512,224.496 92.544,225.744C93,226.056 93.672,226.776 93.912,227.256C95.28,226.344 96.048,225.192 96.432,224.064L99.336,224.064ZM88.488,234.168L99.792,234.168L99.792,235.608L88.488,235.608L88.488,234.168ZM88.488,231.408L99.792,231.408L99.792,232.824L88.488,232.824L88.488,231.408ZM88.488,228.696L99.792,228.696L99.792,230.064L88.488,230.064L88.488,228.696ZM86.328,237L102.024,237L102.024,227.28L86.328,227.28L86.328,237ZM89.4,224.064L89.4,226.8L91.368,226.8L91.368,224.064L93.936,224.064L93.936,222.36L87.024,222.36C87.048,222.168 87.048,222 87.048,221.832L87.048,221.328C89.232,221.136 91.632,220.776 93.384,220.272L91.968,218.904C90.72,219.312 88.608,219.648 86.64,219.888L85.08,219.456L85.08,221.76C85.08,223.296 84.816,225.216 83.088,226.776C83.568,227.064 84.264,227.736 84.576,228.192C85.872,226.992 86.52,225.48 86.808,224.064L89.4,224.064ZM90.288,237.072C88.632,238.008 85.776,238.848 83.304,239.328C83.808,239.712 84.6,240.552 84.984,240.984C87.384,240.336 90.384,239.184 92.328,238.008L90.288,237.072ZM95.76,238.248C98.256,239.112 100.776,240.192 102.192,240.96L104.76,239.904C103.032,239.088 100.152,237.984 97.584,237.12L95.76,238.248ZM100.32,249.984L98.808,250.608C99.432,251.496 100.224,252.912 100.68,253.872L102.24,253.2C101.784,252.288 100.92,250.824 100.32,249.984M102.984,248.976L101.496,249.6C102.144,250.488 102.936,251.856 103.44,252.864L104.952,252.192C104.52,251.328 103.632,249.84 102.984,248.976M95.208,262.224L92.952,262.008C92.76,262.968 92.592,263.976 92.592,264.96C92.592,267.288 94.68,268.56 98.496,268.56C100.272,268.56 101.856,268.392 103.152,268.224L103.224,265.8C101.688,266.112 100.056,266.28 98.52,266.28C95.52,266.28 94.872,265.344 94.872,264.264C94.872,263.688 95.016,262.944 95.208,262.224M92.52,249.264L89.688,249.048C89.712,249.552 89.664,250.416 89.568,251.184C89.52,251.616 89.4,252.216 89.28,252.912C88.464,252.984 87.696,253.008 86.952,253.008C86.04,253.008 85.224,252.984 84.072,252.84L84.144,255.168C84.96,255.24 85.824,255.264 86.904,255.264C87.48,255.264 88.128,255.24 88.8,255.216C88.632,255.96 88.44,256.752 88.248,257.448C87.36,260.76 85.656,265.608 84.216,268.008L86.856,268.896C88.128,266.232 89.688,261.384 90.552,258.072C90.816,257.064 91.08,256.008 91.296,255C92.904,254.808 94.56,254.544 96.024,254.208L96.024,251.856C94.656,252.192 93.216,252.456 91.8,252.648C91.896,252.144 91.992,251.688 92.064,251.28C92.16,250.824 92.376,249.84 92.52,249.264M94.368,256.416L94.368,258.624C95.832,258.456 97.272,258.36 98.808,258.36C100.224,258.36 101.616,258.504 102.816,258.672L102.864,256.392C101.544,256.248 100.128,256.2 98.76,256.2C97.248,256.2 95.64,256.272 94.368,256.416M89.448,277.896L87.096,278.856C88.176,281.4 89.376,284.04 90.456,286.008C88.08,287.736 86.448,289.656 86.448,292.152C86.448,295.92 89.832,297.216 94.368,297.216C97.344,297.216 99.96,296.976 101.832,296.64L101.856,293.952C99.912,294.432 96.768,294.792 94.272,294.792C90.744,294.792 88.992,293.712 88.992,291.888C88.992,290.16 90.288,288.72 92.376,287.352C94.608,285.888 97.752,284.4 99.288,283.632C100.08,283.224 100.728,282.888 101.328,282.528L100.032,280.368C99.48,280.8 98.928,281.136 98.136,281.592C96.912,282.288 94.608,283.44 92.52,284.664C91.536,282.84 90.384,280.416 89.448,277.896M93.48,312.144L93.48,309.792L98.184,309.792C97.296,310.608 96.336,311.4 95.352,312.144L93.48,312.144ZM104.232,314.064L104.232,312.144L98.496,312.144C100.248,310.656 101.88,309.048 103.272,307.32L101.448,306.312C100.68,307.272 99.816,308.208 98.904,309.12L98.904,307.944L93.48,307.944L93.48,305.28L91.272,305.28L91.272,307.944L85.464,307.944L85.464,309.792L91.272,309.792L91.272,312.144L83.664,312.144L83.664,314.064L92.544,314.064C91.728,314.592 90.888,315.072 90.024,315.552L89.256,315.456L89.136,316.008C87.048,317.088 84.84,318.024 82.632,318.792C83.064,319.224 83.76,320.088 84.024,320.544C85.56,319.944 87.072,319.296 88.584,318.552C88.2,320.064 87.816,321.528 87.456,322.608L89.688,322.944C89.784,322.608 89.904,322.224 90,321.816L99.216,321.816C98.856,323.808 98.448,324.816 97.992,325.176C97.728,325.368 97.416,325.392 96.96,325.392C96.36,325.392 94.824,325.368 93.408,325.224C93.768,325.8 94.056,326.664 94.08,327.288C95.544,327.36 96.936,327.36 97.68,327.312C98.592,327.264 99.168,327.144 99.72,326.64C100.488,325.92 101.064,324.336 101.616,320.952C101.664,320.616 101.736,319.968 101.736,319.968L90.504,319.968C90.624,319.464 90.744,318.936 90.888,318.408C94.608,318.144 98.832,317.616 101.712,316.848L100.344,315.36C98.328,315.912 95.112,316.392 91.968,316.728C93.384,315.888 94.752,315.024 96.048,314.064L104.232,314.064ZM89.616,335.208L89.232,337.392C92.088,337.896 96.312,338.4 98.736,338.616L99.048,336.408C96.72,336.264 92.208,335.712 89.616,335.208M99.672,342.288L98.28,340.68C98.04,340.776 97.464,340.896 97.08,340.944C95.208,341.184 89.808,341.496 88.56,341.52C87.744,341.52 86.976,341.496 86.448,341.448L86.64,344.064C87.168,343.992 87.792,343.896 88.608,343.824C90.024,343.704 93.432,343.416 95.208,343.32C92.952,345.624 87.24,351.288 86.184,352.368C85.656,352.872 85.152,353.304 84.816,353.592L87.072,355.152C88.512,353.304 90.744,350.928 91.584,350.112C92.136,349.56 92.664,349.224 93.24,349.224C93.816,349.224 94.32,349.584 94.584,350.424C94.776,351.048 95.112,352.32 95.352,353.04C95.88,354.576 97.08,355.032 99.12,355.032C100.344,355.032 102.624,354.864 103.608,354.696L103.776,352.2C102.624,352.464 100.896,352.68 99.24,352.68C98.16,352.68 97.632,352.296 97.392,351.48C97.152,350.784 96.864,349.704 96.624,349.056C96.336,348.12 95.832,347.544 95.016,347.4C94.752,347.328 94.32,347.28 94.08,347.304C94.824,346.536 97.296,344.256 98.256,343.416C98.616,343.104 99.144,342.672 99.672,342.288M102.84,370.008L104.832,368.28C103.488,366.672 101.304,364.464 99.624,363.096L97.68,364.776C99.336,366.168 101.352,368.184 102.84,370.008" style="fill:rgb(36,24,19);fill-rule:nonzero;"/>
    </g>
    <g transform="matrix(5.833543,0,0,5.833543,142.776097,-1028.196971)">
        <path d="M138.96,183.816L135.264,183.816L135.264,181.728L138.96,181.728L138.96,183.816ZM138.96,187.752L135.264,187.752L135.264,185.664L138.96,185.664L138.96,187.752ZM138.96,191.76L135.264,191.76L135.264,189.6L138.96,189.6L138.96,191.76ZM133.08,193.656L146.544,193.656L146.544,191.76L141.096,191.76L141.096,189.6L145.464,189.6L145.464,187.752L141.096,187.752L141.096,185.664L145.536,185.664L145.536,183.816L141.096,183.816L141.096,181.728L146.136,181.728L146.136,179.832L141.456,179.832C141.912,178.944 142.392,177.936 142.824,176.976L140.4,176.496C140.16,177.48 139.704,178.752 139.224,179.832L135.912,179.832C136.44,178.896 136.92,177.936 137.328,176.952L135.096,176.328C133.944,179.256 131.904,182.064 129.648,183.816C130.152,184.2 130.992,185.088 131.328,185.544C131.928,185.04 132.504,184.44 133.08,183.816L133.08,193.656ZM130.848,180.696C130.128,179.52 128.448,177.936 127.056,176.856L125.352,178.104C126.768,179.256 128.376,180.912 129.048,182.112L130.848,180.696ZM130.2,185.568L125.184,185.568L125.184,187.632L128.064,187.632L128.064,193.416C127.056,194.304 125.88,195.216 124.92,195.864L126.024,198.072C127.2,197.04 128.256,196.08 129.264,195.096C130.728,196.944 132.792,197.736 135.768,197.856C138.552,197.952 143.64,197.904 146.4,197.784C146.52,197.136 146.856,196.104 147.12,195.6C144.072,195.816 138.504,195.888 135.792,195.768C133.128,195.648 131.232,194.904 130.2,193.248L130.2,185.568ZM130.128,220.008C129.36,220.008 128.64,219.336 128.64,218.136C128.64,216.552 129.552,215.448 130.608,215.448C131.376,215.448 131.832,216.048 131.832,217.104C131.832,218.568 131.4,220.008 130.128,220.008M140.088,210.024C141.384,210.984 143.592,213.048 144.792,214.584L146.472,212.856C145.392,211.56 143.064,209.4 141.648,208.464L140.088,210.024ZM130.92,206.184C131.064,206.76 131.112,207.552 131.112,208.728L131.112,209.472C130.848,209.496 130.56,209.496 130.296,209.496C129.144,209.496 127.896,209.376 126.528,209.16L126.648,211.368C128.112,211.536 129.432,211.584 130.44,211.584L131.136,211.584L131.136,213.576C131.016,213.552 130.872,213.552 130.752,213.552C128.328,213.552 126.648,215.712 126.648,218.28C126.648,221.16 128.4,222.24 129.888,222.24C130.08,222.24 130.296,222.216 130.464,222.192L130.464,223.032C130.464,224.76 130.944,226.128 136.008,226.128C137.592,226.128 139.944,225.96 140.976,225.648C143.376,224.976 144.12,223.8 144.24,221.64C144.288,220.656 144.264,220.08 144.264,219L141.672,218.208C141.816,219.216 141.84,220.056 141.84,220.968C141.84,222.384 141.216,223.104 139.992,223.488C139.128,223.728 137.424,223.896 136.152,223.896C133.032,223.896 132.744,223.416 132.744,222.216C132.744,221.856 132.768,221.4 132.768,220.968C133.68,219.912 134.016,218.376 134.016,216.984C134.016,216.12 133.8,215.352 133.368,214.752L133.368,211.416C134.76,211.296 136.32,211.056 137.736,210.744L137.736,208.464C136.296,208.872 134.808,209.136 133.368,209.304L133.368,208.728C133.368,207.624 133.464,206.76 133.56,206.184L130.92,206.184ZM142.944,236.904C142.944,236.088 143.592,235.44 144.408,235.44C145.2,235.44 145.872,236.088 145.872,236.904C145.872,237.696 145.2,238.344 144.408,238.344C143.592,238.344 142.944,237.696 142.944,236.904M141.72,236.904C141.72,237.12 141.744,237.312 141.792,237.504C141.48,237.552 141.168,237.552 140.952,237.552L129.648,237.552C128.88,237.552 127.8,237.48 127.128,237.384L127.128,240.048C127.728,240.024 128.664,239.976 129.648,239.976L141.12,239.976C140.808,242.088 139.8,245.016 138.216,247.056C136.296,249.504 133.68,251.52 129.096,252.624L131.088,254.784C135.288,253.464 138.216,251.232 140.352,248.496C142.248,246 143.328,242.304 143.832,239.928C143.856,239.808 143.88,239.664 143.928,239.52C144.072,239.544 144.24,239.568 144.408,239.568C145.896,239.568 147.096,238.368 147.096,236.904C147.096,235.416 145.896,234.192 144.408,234.192C142.944,234.192 141.72,235.416 141.72,236.904M127.8,266.28C127.848,266.88 127.848,267.696 127.848,268.296L127.848,279.552C127.848,280.488 127.776,282.36 127.776,282.552L130.296,282.552C130.296,282.432 130.296,281.808 130.272,281.112L141.696,281.112C141.696,281.832 141.672,282.456 141.672,282.552L144.288,282.552C144.288,282.384 144.24,280.392 144.24,279.552L144.24,268.296C144.24,267.648 144.24,266.928 144.288,266.304C143.52,266.328 142.68,266.328 142.128,266.328L130.056,266.328C129.456,266.328 128.736,266.328 127.8,266.28M130.272,268.608L141.72,268.608L141.72,278.808L130.272,278.808L130.272,268.608ZM131.256,308.28C131.256,310.776 132.024,311.976 136.8,311.976C139.536,311.976 142.056,311.76 144.072,311.496L144.168,308.976C141.84,309.408 139.44,309.696 136.848,309.696C134.16,309.696 133.68,309.192 133.68,307.656L133.68,301.032C137.448,300.288 141.192,299.544 141.744,299.424C141.072,300.744 139.44,303.096 137.784,304.608L139.824,305.808C141.6,304.008 143.544,300.96 144.624,299.04C144.792,298.68 145.08,298.224 145.272,297.96L143.52,296.568C143.16,296.784 142.68,296.928 142.104,297.072C141.096,297.312 137.4,298.056 133.68,298.752L133.68,295.536C133.68,294.816 133.728,293.832 133.848,293.136L131.088,293.136C131.184,293.832 131.256,294.792 131.256,295.536L131.256,299.208C128.856,299.664 126.72,300.024 125.64,300.168L126.096,302.616C127.056,302.4 129.024,301.992 131.256,301.536L131.256,308.28ZM143.376,324.48L141.864,323.328C141.456,323.472 140.712,323.568 139.824,323.568L131.088,323.568C130.392,323.568 129.024,323.472 128.568,323.424L128.568,326.016C128.928,325.968 130.2,325.872 131.088,325.872L139.752,325.872C139.176,327.672 137.616,330.288 136.056,332.064C133.728,334.632 130.224,337.464 126.456,338.88L128.352,340.872C131.688,339.312 134.832,336.84 137.304,334.176C139.608,336.288 141.936,338.88 143.472,340.968L145.56,339.144C144.12,337.392 141.264,334.392 138.888,332.352C140.496,330.24 141.888,327.6 142.68,325.68C142.872,325.296 143.208,324.696 143.376,324.48M133.176,350.088C133.128,350.952 132.936,351.936 132.648,352.896C132.168,352.92 131.688,352.92 131.256,352.92C130.128,352.92 128.448,352.824 127.2,352.632L127.2,354.864C128.52,354.96 130.152,355.008 131.136,355.008L131.808,355.008C130.848,357 129.24,359.304 126.504,361.872L128.544,363.384C129.312,362.376 130.008,361.536 130.68,360.864C131.664,359.928 133.152,359.16 134.568,359.16C135.408,359.16 136.176,359.52 136.512,360.336C133.8,361.728 130.944,363.576 130.944,366.456C130.944,369.384 133.656,370.2 137.184,370.2C139.296,370.2 142.032,370.008 143.712,369.792L143.784,367.392C141.72,367.776 139.152,367.992 137.256,367.992C134.88,367.992 133.368,367.656 133.368,366.096C133.368,364.704 134.616,363.624 136.656,362.52C136.632,363.672 136.608,365.016 136.536,365.832L138.792,365.832C138.768,364.68 138.744,362.832 138.72,361.488C140.352,360.72 141.888,360.12 143.088,359.664C143.808,359.376 144.816,358.992 145.488,358.8L144.528,356.592C143.784,356.976 143.088,357.288 142.296,357.624C141.192,358.128 139.968,358.608 138.528,359.304C138.072,358.008 136.848,357.336 135.384,357.336C134.472,357.336 133.152,357.6 132.384,358.056C133.032,357.144 133.68,356.016 134.184,354.936C136.728,354.84 139.632,354.648 141.912,354.288L141.912,352.128C139.776,352.488 137.328,352.704 135,352.824C135.336,351.792 135.504,350.928 135.648,350.28L133.176,350.088Z" style="fill:rgb(36,24,19);fill-rule:nonzero;"/>
    </g>
    <g transform="matrix(5.833543,0,0,5.833543,1156.272539,1286.926274)">
        <path d="M0,-217.92C-0.936,-218.664 -2.832,-219.72 -4.176,-220.392L-5.448,-218.784C-4.056,-218.04 -2.184,-216.864 -1.32,-216.12L0,-217.92ZM-1.248,-211.68C-2.208,-212.376 -4.152,-213.384 -5.544,-214.008L-6.792,-212.352C-5.376,-211.656 -3.432,-210.576 -2.544,-209.832L-1.248,-211.68ZM-2.328,-207.84C-3.528,-205.128 -5.112,-202.032 -6.24,-200.208L-4.272,-198.864C-3.048,-201.12 -1.68,-204 -0.624,-206.496L-2.328,-207.84ZM10.968,-209.424C10.32,-207.6 9.384,-206.04 8.232,-204.744C6.984,-206.088 5.976,-207.672 5.256,-209.424L10.968,-209.424ZM6.432,-211.392L2.928,-211.392L2.928,-215.208L6.432,-215.208L6.432,-211.392ZM12.288,-211.488L11.856,-211.392L8.616,-211.392L8.616,-215.208L12.384,-215.208C12.048,-214.248 11.688,-213.288 11.376,-212.592L13.272,-212.04C13.944,-213.264 14.688,-215.208 15.264,-216.96L13.656,-217.368L13.272,-217.296L8.616,-217.296L8.616,-220.608L6.432,-220.608L6.432,-217.296L0.792,-217.296L0.792,-211.248C0.792,-207.792 0.552,-203.04 -1.968,-199.704C-1.416,-199.512 -0.48,-198.96 -0.072,-198.6C2.136,-201.576 2.76,-205.896 2.904,-209.424L3.144,-209.424C4.008,-207.072 5.208,-205.008 6.744,-203.256C5.184,-201.984 3.384,-201.048 1.392,-200.4C1.848,-199.992 2.52,-199.056 2.808,-198.528C4.8,-199.272 6.672,-200.328 8.256,-201.744C9.888,-200.376 11.76,-199.296 13.992,-198.576C14.28,-199.176 14.928,-200.04 15.432,-200.496C13.272,-201.072 11.4,-202.032 9.816,-203.28C11.544,-205.272 12.888,-207.744 13.68,-210.864L12.288,-211.488ZM3.168,-188.016L3.192,-185.616C5.928,-185.352 10.368,-185.352 13.056,-185.616L13.056,-188.04C10.608,-187.704 5.88,-187.608 3.168,-188.016M4.512,-178.224L2.376,-178.44C2.112,-177.264 1.968,-176.376 1.968,-175.536C1.968,-173.232 3.84,-171.864 7.824,-171.864C10.368,-171.864 12.288,-172.032 13.8,-172.32L13.728,-174.84C11.76,-174.408 9.984,-174.24 7.896,-174.24C5.04,-174.24 4.2,-175.08 4.2,-176.136C4.2,-176.784 4.32,-177.408 4.512,-178.224M-0.912,-189.72L-3.552,-189.936C-3.576,-189.336 -3.672,-188.592 -3.768,-187.992C-4.008,-186.096 -4.776,-182.112 -4.776,-178.608C-4.776,-175.416 -4.344,-172.656 -3.888,-171L-1.728,-171.144C-1.752,-171.432 -1.776,-171.768 -1.776,-172.032C-1.8,-172.296 -1.728,-172.752 -1.656,-173.112C-1.44,-174.288 -0.6,-176.784 0.024,-178.584L-1.2,-179.52C-1.56,-178.656 -2.04,-177.528 -2.424,-176.568C-2.52,-177.216 -2.568,-178.224 -2.568,-179.064C-2.568,-181.584 -1.8,-186 -1.416,-187.92C-1.32,-188.352 -1.08,-189.288 -0.912,-189.72M13.2,-162.792C10.272,-162.048 5.184,-161.472 0.888,-161.232C1.104,-160.752 1.344,-160.008 1.416,-159.504C5.784,-159.72 11.016,-160.2 14.496,-161.088L13.2,-162.792ZM8.928,-155.976C8.832,-156.912 8.4,-158.448 7.896,-159.6L6.12,-159.144C6.576,-157.968 6.96,-156.408 7.056,-155.424L8.928,-155.976ZM5.136,-155.616C4.944,-156.576 4.344,-158.064 3.72,-159.192L1.968,-158.712C2.52,-157.536 3.072,-156 3.264,-155.04L5.136,-155.616ZM9.024,-148.992L15.168,-148.992L15.168,-150.864L9.024,-150.864L9.024,-152.928L14.592,-152.928L14.592,-154.776L12.144,-154.776C12.96,-156.096 13.848,-157.776 14.616,-159.24L12.432,-160.008C11.88,-158.424 10.896,-156.264 10.008,-154.776L1.464,-154.776L1.464,-152.928L6.912,-152.928L6.912,-150.864L1.344,-150.864L1.128,-152.76C0.288,-152.52 -0.552,-152.28 -1.368,-152.064L-1.368,-156.288L1.128,-156.288L1.128,-158.352L-1.368,-158.352L-1.368,-163.008L-3.504,-163.008L-3.504,-158.352L-6.648,-158.352L-6.648,-156.288L-3.504,-156.288L-3.504,-151.488C-4.8,-151.128 -6,-150.816 -6.96,-150.6L-6.408,-148.416L-3.504,-149.256L-3.504,-143.448C-3.504,-143.088 -3.648,-142.992 -3.96,-142.992C-4.272,-142.968 -5.256,-142.968 -6.264,-143.016C-5.976,-142.44 -5.712,-141.528 -5.64,-141C-4.008,-140.976 -3,-141.048 -2.28,-141.36C-1.608,-141.72 -1.368,-142.296 -1.368,-143.424L-1.368,-149.904L0.744,-150.528L0.744,-148.992L6.912,-148.992L6.912,-144.048L3.864,-144.048L3.864,-147.792L1.824,-147.792L1.824,-140.976L3.864,-140.976L3.864,-142.2L12.192,-142.2L12.192,-141.024L14.232,-141.024L14.232,-147.792L12.192,-147.792L12.192,-144.048L9.024,-144.048L9.024,-148.992ZM0.408,-132.96L-0.192,-130.704C1.632,-130.224 6.792,-129.144 9.096,-128.832L9.648,-131.136C7.584,-131.352 2.52,-132.288 0.408,-132.96M0.192,-128.472L-2.328,-128.808C-2.472,-126.144 -3.048,-121.344 -3.528,-119.136L-1.32,-118.608C-1.152,-119.016 -0.936,-119.4 -0.552,-119.856C1.032,-121.752 3.504,-122.832 6.408,-122.832C8.64,-122.832 10.272,-121.584 10.272,-119.88C10.272,-116.76 6.6,-114.816 -0.672,-115.728L0.048,-113.304C9.216,-112.512 12.84,-115.56 12.84,-119.808C12.84,-122.616 10.416,-124.944 6.576,-124.944C3.912,-124.944 1.44,-124.152 -0.744,-122.328C-0.528,-123.792 -0.12,-126.984 0.192,-128.472M-0.792,-102.432C-0.792,-102.168 -0.84,-101.4 -0.912,-100.392C-2.04,-100.224 -3.264,-100.08 -3.984,-100.032C-4.68,-99.984 -5.184,-99.984 -5.76,-100.008L-5.52,-97.608C-4.128,-97.8 -2.16,-98.04 -1.056,-98.184C-1.104,-97.512 -1.152,-96.816 -1.2,-96.144C-2.472,-94.248 -5.04,-90.84 -6.336,-89.208L-4.872,-87.168C-3.864,-88.512 -2.496,-90.528 -1.392,-92.16C-1.464,-89.568 -1.488,-88.2 -1.512,-85.992C-1.512,-85.608 -1.536,-84.936 -1.56,-84.456L1.008,-84.456C0.96,-84.936 0.912,-85.632 0.888,-86.064C0.744,-88.2 0.768,-89.88 0.768,-91.92C0.768,-92.664 0.792,-93.456 0.84,-94.296C2.88,-96.528 5.592,-98.736 7.44,-98.736C8.544,-98.736 9.192,-98.16 9.192,-96.888C9.192,-94.656 8.328,-90.984 8.328,-88.392C8.328,-86.304 9.432,-85.152 11.112,-85.152C12.84,-85.152 14.28,-85.872 15.456,-87.024L15.12,-89.616C13.968,-88.44 12.792,-87.792 11.784,-87.792C11.064,-87.792 10.704,-88.32 10.704,-89.04C10.704,-91.464 11.544,-95.232 11.544,-97.632C11.544,-99.576 10.416,-100.944 8.088,-100.944C5.76,-100.944 2.88,-98.856 1.032,-97.2C1.056,-97.536 1.08,-97.872 1.104,-98.208C1.464,-98.784 1.896,-99.456 2.208,-99.864L1.416,-100.848L1.368,-100.824C1.56,-102.384 1.728,-103.632 1.848,-104.232L-0.912,-104.328C-0.792,-103.704 -0.792,-103.032 -0.792,-102.432M14.64,-69.24C13.488,-70.104 10.704,-71.664 9,-72.408L7.824,-70.56C9.384,-69.864 12,-68.352 13.32,-67.272L14.64,-69.24ZM6.576,-68.184C6.624,-66.624 6.72,-64.416 6.792,-62.568C6.168,-62.664 5.496,-62.736 4.824,-62.736C1.92,-62.736 -0.096,-61.152 -0.096,-58.944C-0.096,-56.496 2.112,-55.344 4.848,-55.344C7.968,-55.344 9.144,-56.952 9.144,-58.968L9.144,-59.616C10.56,-58.848 11.76,-57.816 12.672,-56.976L13.944,-58.992C12.744,-60.048 11.064,-61.224 9.048,-61.968C9,-63.288 8.928,-64.656 8.904,-65.424C8.88,-66.36 8.856,-67.2 8.928,-68.184L6.576,-68.184ZM2.088,-59.16C2.088,-60.12 3.144,-60.84 4.704,-60.84C5.472,-60.84 6.192,-60.744 6.864,-60.552C6.888,-60.24 6.888,-59.952 6.888,-59.736C6.888,-58.44 6.336,-57.48 4.536,-57.48C2.928,-57.48 2.088,-58.152 2.088,-59.16M0.768,-75.72C0.72,-74.472 0.432,-73.032 0.072,-71.712C-0.744,-71.64 -1.56,-71.616 -2.328,-71.616C-3.288,-71.616 -4.392,-71.664 -5.328,-71.76L-5.16,-69.552C-4.224,-69.504 -3.24,-69.48 -2.328,-69.48C-1.776,-69.48 -1.2,-69.504 -0.648,-69.528C-1.68,-66.888 -3.648,-63.264 -5.568,-60.96L-3.288,-59.784C-1.392,-62.4 0.672,-66.48 1.8,-69.792C3.36,-70.008 4.848,-70.32 6.024,-70.632L5.952,-72.84C4.872,-72.48 3.696,-72.216 2.496,-72.024C2.856,-73.344 3.168,-74.664 3.36,-75.456L0.768,-75.72ZM10.896,-47.016L9.384,-46.392C9.936,-45.6 10.584,-44.424 11.04,-43.512C11.016,-43.56 10.968,-43.608 10.944,-43.656L8.736,-42.696C10.392,-40.68 12.264,-36 12.912,-33.384L15.288,-34.464C14.592,-36.624 12.744,-40.92 11.304,-43.128L12.792,-43.776C12.336,-44.712 11.496,-46.176 10.896,-47.016M13.56,-48.024L12.048,-47.4C12.72,-46.488 13.488,-45.144 13.992,-44.136L15.528,-44.808C15.096,-45.672 14.184,-47.136 13.56,-48.024M2.856,-46.248L0.072,-46.512C0.072,-44.976 -0.144,-43.2 -0.48,-41.472C-1.8,-41.352 -3.072,-41.256 -3.816,-41.232C-4.632,-41.208 -5.304,-41.16 -6.12,-41.232L-5.88,-38.664C-5.232,-38.784 -4.128,-38.904 -3.528,-39C-3,-39.048 -2.04,-39.168 -0.984,-39.288C-1.824,-36.072 -3.504,-31.008 -5.856,-27.84L-3.432,-26.88C-1.104,-30.624 0.6,-36.072 1.464,-39.528C2.352,-39.624 3.12,-39.672 3.6,-39.672C5.088,-39.672 5.976,-39.336 5.976,-37.296C5.976,-34.848 5.64,-31.872 4.944,-30.384C4.512,-29.496 3.864,-29.28 3.024,-29.28C2.376,-29.28 1.08,-29.496 0.144,-29.784L0.528,-27.312C1.32,-27.12 2.424,-26.976 3.336,-26.976C4.944,-26.976 6.192,-27.408 6.96,-29.016C7.944,-31.008 8.304,-34.776 8.304,-37.56C8.304,-40.848 6.576,-41.784 4.296,-41.784C3.768,-41.784 2.904,-41.736 1.944,-41.664C2.16,-42.744 2.352,-43.872 2.496,-44.592C2.592,-45.12 2.736,-45.72 2.856,-46.248M0.408,-17.76L-0.192,-15.504C1.632,-15.024 6.792,-13.944 9.096,-13.632L9.648,-15.936C7.584,-16.152 2.52,-17.088 0.408,-17.76M0.192,-13.272L-2.328,-13.608C-2.472,-10.944 -3.048,-6.144 -3.528,-3.936L-1.32,-3.408C-1.152,-3.816 -0.936,-4.2 -0.552,-4.656C1.032,-6.552 3.504,-7.632 6.408,-7.632C8.64,-7.632 10.272,-6.384 10.272,-4.68C10.272,-1.56 6.6,0.384 -0.672,-0.528L0.048,1.896C9.216,2.688 12.84,-0.36 12.84,-4.608C12.84,-7.416 10.416,-9.744 6.576,-9.744C3.912,-9.744 1.44,-8.952 -0.744,-7.128C-0.528,-8.592 -0.12,-11.784 0.192,-13.272" style="fill:rgb(36,24,19);fill-rule:nonzero;"/>
    </g>
    <g transform="matrix(5.833543,0,0,5.833543,1471.983891,1214.125989)">
        <path d="M0,-207.168C-0.504,-205.704 -1.488,-203.64 -2.304,-202.344L-0.552,-201.624C0.264,-202.848 1.296,-204.72 2.184,-206.376L0,-207.168ZM-7.512,-202.416C-7.8,-203.688 -8.736,-205.56 -9.696,-207L-11.592,-206.28C-10.68,-204.816 -9.792,-202.872 -9.576,-201.624L-7.512,-202.416ZM-6.048,-189.624L-3.816,-189.624L-3.816,-197.112C-2.4,-194.592 -0.456,-192.288 1.584,-190.944C1.92,-191.496 2.616,-192.288 3.144,-192.72C0.936,-193.944 -1.296,-196.248 -2.664,-198.672L2.712,-198.672L2.712,-200.736L-3.816,-200.736L-3.816,-207.768L-6.048,-207.768L-6.048,-200.736L-12.336,-200.736L-12.336,-198.672L-7.176,-198.672C-8.544,-196.224 -10.68,-193.824 -12.816,-192.576C-12.312,-192.168 -11.64,-191.352 -11.28,-190.848C-9.336,-192.192 -7.44,-194.4 -6.048,-196.872L-6.048,-189.624ZM-12.672,-203.904C-13.488,-205.056 -15.288,-206.544 -16.776,-207.576L-18.432,-206.232C-16.92,-205.176 -15.192,-203.568 -14.424,-202.44L-12.672,-203.904ZM-13.32,-198.816L-18.576,-198.816L-18.576,-196.752L-15.504,-196.752L-15.504,-191.112C-16.632,-190.2 -17.904,-189.312 -18.984,-188.64L-17.832,-186.336C-16.584,-187.368 -15.432,-188.328 -14.304,-189.312C-12.792,-187.464 -10.728,-186.672 -7.68,-186.552C-4.944,-186.432 -0.12,-186.48 2.592,-186.6C2.712,-187.296 3.072,-188.352 3.336,-188.88C0.336,-188.688 -4.992,-188.616 -7.656,-188.712C-10.296,-188.808 -12.264,-189.576 -13.32,-191.232L-13.32,-198.816ZM-13.896,-175.992L-16.776,-176.04C-16.632,-175.416 -16.584,-174.408 -16.584,-173.832C-16.584,-172.416 -16.56,-169.584 -16.32,-167.52C-15.672,-161.328 -13.512,-159.072 -11.136,-159.072C-9.408,-159.072 -7.944,-160.464 -6.456,-164.496L-8.376,-166.68C-8.88,-164.52 -9.912,-161.976 -11.088,-161.976C-12.672,-161.976 -13.608,-164.448 -13.968,-168.144C-14.136,-169.992 -14.16,-171.96 -14.136,-173.448C-14.112,-174.096 -14.016,-175.32 -13.896,-175.992M-1.896,-175.392L-4.2,-174.624C-1.824,-171.792 -0.456,-166.584 -0.072,-162.528L2.328,-163.464C2.016,-167.304 0.264,-172.656 -1.896,-175.392M0.984,-143.4L2.976,-145.128C1.632,-146.736 -0.552,-148.944 -2.232,-150.312L-4.176,-148.632C-2.52,-147.24 -0.504,-145.224 0.984,-143.4M-15.936,-118.008L0.192,-118.008L0.192,-115.44L2.352,-115.44L2.352,-119.952L-6.72,-119.952L-6.72,-121.728L-8.952,-121.728L-8.952,-119.952L-18,-119.952L-18,-115.44L-15.936,-115.44L-15.936,-118.008ZM-7.968,-103.752L-13.272,-103.752L-13.272,-105.816L-7.968,-105.816L-7.968,-103.752ZM-5.88,-102.072L-5.88,-107.496L-15.36,-107.496L-15.36,-100.848L-13.272,-100.848L-13.272,-102.072L-5.88,-102.072ZM-14.112,-110.712C-11.496,-111.192 -9.84,-111.912 -8.736,-112.944C-6.552,-112.392 -4.056,-111.504 -2.328,-110.712L-14.112,-110.712ZM2.712,-110.712L-0.936,-110.712L-0.168,-111.768C-1.896,-112.68 -5.064,-113.76 -7.656,-114.384L-7.56,-114.6L-0.336,-114.6L-0.336,-116.376L-6.984,-116.376C-6.888,-116.856 -6.816,-117.384 -6.744,-117.936L-8.832,-117.936C-8.904,-117.36 -8.976,-116.856 -9.096,-116.376L-15.36,-116.376L-15.36,-114.6L-9.912,-114.6C-10.896,-113.328 -12.72,-112.584 -16.248,-112.128C-15.912,-111.816 -15.528,-111.168 -15.312,-110.712L-18.36,-110.712L-18.36,-108.744L-2.784,-108.744L-2.784,-102.12C-2.784,-101.808 -2.904,-101.736 -3.288,-101.712C-3.696,-101.688 -4.992,-101.688 -6.312,-101.736C-6.072,-101.184 -5.736,-100.32 -5.64,-99.72C-3.792,-99.72 -2.544,-99.72 -1.68,-100.032C-0.816,-100.344 -0.6,-100.92 -0.6,-102.072L-0.6,-108.744L2.712,-108.744L2.712,-110.712ZM-11.16,-91.68L-13.776,-91.776C-13.8,-91.152 -13.848,-90.36 -13.944,-89.568C-14.256,-87.432 -14.664,-84.216 -14.664,-82.008C-14.664,-80.448 -14.52,-79.056 -14.4,-78.168L-12.072,-78.336C-12.216,-79.488 -12.24,-80.256 -12.168,-81.048C-11.952,-84.144 -9.36,-88.368 -6.48,-88.368C-4.224,-88.368 -3,-85.992 -3,-82.296C-3,-76.488 -6.84,-74.568 -12,-73.8L-10.608,-71.64C-4.584,-72.744 -0.504,-75.744 -0.504,-82.32C-0.504,-87.384 -2.88,-90.552 -6.072,-90.552C-8.904,-90.552 -11.16,-88.008 -12.216,-85.872C-12.072,-87.36 -11.592,-90.216 -11.16,-91.68M-1.128,-54.504L-8.424,-54.504L-8.424,-56.184L-1.128,-56.184L-1.128,-54.504ZM-1.128,-51.288L-8.424,-51.288L-8.424,-52.992L-1.128,-52.992L-1.128,-51.288ZM-1.128,-48.072L-8.424,-48.072L-8.424,-49.752L-1.128,-49.752L-1.128,-48.072ZM-10.512,-57.816L-10.512,-46.392L1.08,-46.392L1.08,-57.816L-4.44,-57.816C-4.224,-58.32 -3.984,-58.872 -3.768,-59.448L2.856,-59.448L2.856,-61.272L-1.2,-61.272C-0.744,-61.944 -0.216,-62.784 0.288,-63.624L-1.968,-64.152C-2.304,-63.312 -2.928,-62.112 -3.456,-61.272L-7.008,-61.272L-6.48,-61.488C-6.744,-62.256 -7.44,-63.336 -8.16,-64.104L-9.888,-63.432C-9.384,-62.784 -8.856,-61.968 -8.544,-61.272L-12.288,-61.272L-12.288,-59.448L-6.192,-59.448C-6.288,-58.92 -6.408,-58.344 -6.528,-57.816L-10.512,-57.816ZM-12.672,-59.904C-13.488,-61.056 -15.288,-62.544 -16.776,-63.576L-18.432,-62.232C-16.92,-61.176 -15.192,-59.568 -14.424,-58.44L-12.672,-59.904ZM-13.32,-54.816L-18.576,-54.816L-18.576,-52.752L-15.504,-52.752L-15.504,-47.112C-16.632,-46.2 -17.904,-45.312 -18.984,-44.64L-17.832,-42.336C-16.584,-43.368 -15.432,-44.328 -14.304,-45.312C-12.792,-43.464 -10.728,-42.672 -7.68,-42.552C-4.944,-42.432 -0.12,-42.48 2.592,-42.6C2.712,-43.296 3.072,-44.352 3.336,-44.88C0.336,-44.688 -4.992,-44.616 -7.656,-44.712C-10.296,-44.808 -12.264,-45.576 -13.32,-47.232L-13.32,-54.816ZM-11.256,-33.84L-14.28,-33.864C-14.088,-33.096 -14.016,-32.112 -14.016,-31.128C-14.016,-28.872 -14.256,-22.8 -14.256,-19.464C-14.256,-15.552 -11.856,-14.016 -8.256,-14.016C-3,-14.016 0.168,-17.064 1.728,-19.296L0.024,-21.36C-1.656,-18.864 -4.104,-16.512 -8.232,-16.512C-10.272,-16.512 -11.808,-17.376 -11.808,-19.872C-11.808,-23.136 -11.616,-28.536 -11.52,-31.128C-11.472,-31.992 -11.376,-32.976 -11.256,-33.84M0.984,0.6L2.976,-1.128C1.632,-2.736 -0.552,-4.944 -2.232,-6.312L-4.176,-4.632C-2.52,-3.24 -0.504,-1.224 0.984,0.6" style="fill:rgb(36,24,19);fill-rule:nonzero;"/>
    </g>
    <g transform="matrix(5.833543,0,0,5.833543,2227.87107,2160)">
        <path d="M0,-367.752L-16.8,-367.752L-16.8,-365.616L-2.232,-365.616L-2.232,-360.024L0,-360.024L0,-367.752ZM-17.448,-338.808L-5.592,-338.808L-5.592,-335.376L-17.448,-335.376L-17.448,-338.808ZM-5.592,-340.92L-17.448,-340.92L-17.448,-344.376L-5.592,-344.376L-5.592,-340.92ZM-5.592,-346.488L-17.448,-346.488L-17.448,-349.896L-5.592,-349.896L-5.592,-346.488ZM-19.704,-352.08L-19.704,-331.608L-17.448,-331.608L-17.448,-333.192L-5.592,-333.192L-5.592,-331.608L-3.24,-331.608L-3.24,-352.08L-19.704,-352.08ZM-19.296,-312.384L-14.832,-312.384L-14.832,-307.08L-19.296,-307.08L-19.296,-312.384ZM-14.832,-314.328L-19.296,-314.328L-19.296,-318.888L-14.832,-318.888L-14.832,-314.328ZM-8.04,-320.952C-7.656,-322.008 -7.344,-323.112 -7.056,-324.216L-9.216,-324.72C-9.936,-321.552 -11.208,-318.36 -12.792,-316.296L-12.792,-320.832L-16.632,-320.832C-16.248,-321.84 -15.792,-323.112 -15.384,-324.312L-17.808,-324.72C-17.952,-323.568 -18.312,-321.984 -18.648,-320.832L-21.336,-320.832L-21.336,-303.288L-19.296,-303.288L-19.296,-305.112L-12.792,-305.112L-12.792,-316.128C-12.24,-315.816 -11.4,-315.216 -11.04,-314.88C-10.272,-315.984 -9.528,-317.376 -8.856,-318.912L-3.192,-318.912C-3.504,-309.864 -3.816,-306.24 -4.584,-305.448C-4.848,-305.112 -5.112,-305.04 -5.592,-305.04C-6.192,-305.04 -7.584,-305.064 -9.12,-305.184C-8.712,-304.56 -8.448,-303.624 -8.4,-303.024C-7.032,-302.952 -5.616,-302.928 -4.776,-303.024C-3.864,-303.144 -3.288,-303.36 -2.688,-304.152C-1.728,-305.352 -1.44,-309.072 -1.104,-319.896C-1.08,-320.184 -1.08,-320.952 -1.08,-320.952L-8.04,-320.952ZM-4.968,-310.128C-5.688,-311.544 -7.32,-313.824 -8.592,-315.48L-10.344,-314.496C-9.072,-312.768 -7.512,-310.416 -6.84,-308.952L-4.968,-310.128ZM-17.328,-288.12L-14.664,-288.12L-14.664,-290.232L-17.328,-290.232L-17.328,-295.56L-19.416,-295.56L-19.416,-290.232L-22.368,-290.232L-22.368,-288.12L-19.416,-288.12L-19.416,-280.92C-20.616,-280.416 -21.72,-279.984 -22.584,-279.696L-21.72,-277.44C-19.584,-278.4 -16.848,-279.648 -14.328,-280.872L-14.832,-282.84C-15.648,-282.504 -16.512,-282.144 -17.328,-281.784L-17.328,-288.12ZM-9.24,-276.336C-10.776,-276.336 -11.04,-276.6 -11.04,-277.944L-11.04,-285.816L-8.352,-286.968L-8.352,-279.24L-6.264,-279.24L-6.264,-287.856L-3.48,-289.056C-3.48,-285.408 -3.528,-283.176 -3.624,-282.696C-3.72,-282.216 -3.936,-282.12 -4.248,-282.12C-4.488,-282.12 -5.136,-282.12 -5.64,-282.144C-5.4,-281.664 -5.208,-280.824 -5.136,-280.248C-4.44,-280.248 -3.48,-280.272 -2.832,-280.512C-2.088,-280.704 -1.68,-281.232 -1.56,-282.24C-1.416,-283.176 -1.368,-286.44 -1.368,-290.904L-1.272,-291.288L-2.832,-291.888L-3.216,-291.576L-3.648,-291.24L-6.264,-290.136L-6.264,-295.848L-8.352,-295.848L-8.352,-289.248L-11.04,-288.12L-11.04,-293.592L-13.152,-293.592L-13.152,-287.232L-15.648,-286.176L-14.808,-284.208L-13.152,-284.904L-13.152,-277.968C-13.152,-275.088 -12.312,-274.344 -9.36,-274.344L-3.864,-274.344C-1.248,-274.344 -0.576,-275.424 -0.264,-278.736C-0.864,-278.856 -1.728,-279.216 -2.232,-279.552C-2.424,-276.936 -2.664,-276.336 -3.984,-276.336L-9.24,-276.336ZM-22.8,-259.296L-6,-259.296L-6,-261.432L-20.568,-261.432L-20.568,-267.024L-22.8,-267.024L-22.8,-259.296ZM-5.112,-235.968L-6.624,-235.344C-6,-234.456 -5.208,-233.04 -4.752,-232.08L-3.192,-232.752C-3.648,-233.664 -4.512,-235.128 -5.112,-235.968M-2.448,-236.976L-3.936,-236.352C-3.288,-235.464 -2.496,-234.096 -1.992,-233.088L-0.48,-233.76C-0.912,-234.624 -1.8,-236.112 -2.448,-236.976M-10.224,-223.728L-12.48,-223.944C-12.672,-222.984 -12.84,-221.976 -12.84,-220.992C-12.84,-218.664 -10.752,-217.392 -6.936,-217.392C-5.16,-217.392 -3.576,-217.56 -2.28,-217.728L-2.208,-220.152C-3.744,-219.84 -5.376,-219.672 -6.912,-219.672C-9.912,-219.672 -10.56,-220.608 -10.56,-221.688C-10.56,-222.264 -10.416,-223.008 -10.224,-223.728M-12.912,-236.688L-15.744,-236.904C-15.72,-236.4 -15.768,-235.536 -15.864,-234.768C-15.912,-234.336 -16.032,-233.736 -16.152,-233.04C-16.968,-232.968 -17.736,-232.944 -18.48,-232.944C-19.392,-232.944 -20.208,-232.968 -21.36,-233.112L-21.288,-230.784C-20.472,-230.712 -19.608,-230.688 -18.528,-230.688C-17.952,-230.688 -17.304,-230.712 -16.632,-230.736C-16.8,-229.992 -16.992,-229.2 -17.184,-228.504C-18.072,-225.192 -19.776,-220.344 -21.216,-217.944L-18.576,-217.056C-17.304,-219.72 -15.744,-224.568 -14.88,-227.88C-14.616,-228.888 -14.352,-229.944 -14.136,-230.952C-12.528,-231.144 -10.872,-231.408 -9.408,-231.744L-9.408,-234.096C-10.776,-233.76 -12.216,-233.496 -13.632,-233.304C-13.536,-233.808 -13.44,-234.264 -13.368,-234.672C-13.272,-235.128 -13.056,-236.112 -12.912,-236.688M-11.064,-229.536L-11.064,-227.328C-9.6,-227.496 -8.16,-227.592 -6.624,-227.592C-5.208,-227.592 -3.816,-227.448 -2.616,-227.28L-2.568,-229.56C-3.888,-229.704 -5.304,-229.752 -6.672,-229.752C-8.184,-229.752 -9.792,-229.68 -11.064,-229.536M-19.656,-207.84C-19.656,-207.336 -19.68,-206.64 -19.8,-206.064C-20.088,-204.12 -20.64,-200.496 -20.64,-196.656C-20.64,-193.728 -19.824,-190.56 -19.344,-189.12L-17.256,-189.36C-17.28,-189.648 -17.328,-190.008 -17.328,-190.224C-17.352,-190.488 -17.304,-190.992 -17.208,-191.328C-16.92,-192.552 -16.272,-194.952 -15.624,-196.752L-16.896,-197.52C-17.28,-196.488 -17.76,-195.24 -18.072,-194.352C-18.816,-197.808 -18.024,-202.8 -17.328,-205.848C-17.232,-206.328 -17.04,-207.072 -16.872,-207.552L-19.656,-207.84ZM-7.8,-207.936C-7.704,-207.576 -7.608,-207 -7.56,-206.448C-7.512,-205.824 -7.488,-204.408 -7.464,-202.992C-8.424,-202.968 -9.36,-202.944 -10.272,-202.944C-11.544,-202.944 -12.888,-203.04 -13.968,-203.184L-13.968,-200.808C-12.888,-200.76 -11.328,-200.688 -10.248,-200.688C-9.312,-200.688 -8.376,-200.712 -7.416,-200.736L-7.416,-199.968C-7.416,-195.696 -7.656,-193.272 -9.864,-191.232C-10.464,-190.584 -11.52,-189.912 -12.336,-189.576L-10.176,-187.872C-5.328,-190.824 -5.112,-194.496 -5.112,-199.968L-5.112,-200.856C-3.744,-200.952 -2.472,-201.072 -1.464,-201.216L-1.44,-203.64C-2.496,-203.424 -3.768,-203.256 -5.136,-203.136C-5.16,-204.552 -5.184,-205.944 -5.16,-206.448C-5.16,-206.976 -5.136,-207.48 -5.064,-207.936L-7.8,-207.936ZM-14.256,-179.64C-14.304,-178.776 -14.496,-177.792 -14.784,-176.832C-15.264,-176.808 -15.744,-176.808 -16.176,-176.808C-17.304,-176.808 -18.984,-176.904 -20.232,-177.096L-20.232,-174.864C-18.912,-174.768 -17.28,-174.72 -16.296,-174.72L-15.624,-174.72C-16.584,-172.728 -18.192,-170.424 -20.928,-167.856L-18.888,-166.344C-18.12,-167.352 -17.424,-168.192 -16.752,-168.864C-15.768,-169.8 -14.28,-170.568 -12.864,-170.568C-12.024,-170.568 -11.256,-170.208 -10.92,-169.392C-13.632,-168 -16.488,-166.152 -16.488,-163.272C-16.488,-160.344 -13.776,-159.528 -10.248,-159.528C-8.136,-159.528 -5.4,-159.72 -3.72,-159.936L-3.648,-162.336C-5.712,-161.952 -8.28,-161.736 -10.176,-161.736C-12.552,-161.736 -14.064,-162.072 -14.064,-163.632C-14.064,-165.024 -12.816,-166.104 -10.776,-167.208C-10.8,-166.056 -10.824,-164.712 -10.896,-163.896L-8.64,-163.896C-8.664,-165.048 -8.688,-166.896 -8.712,-168.24C-7.08,-169.008 -5.544,-169.608 -4.344,-170.064C-3.624,-170.352 -2.616,-170.736 -1.944,-170.928L-2.904,-173.136C-3.648,-172.752 -4.344,-172.44 -5.136,-172.104C-6.24,-171.6 -7.464,-171.12 -8.904,-170.424C-9.36,-171.72 -10.584,-172.392 -12.048,-172.392C-12.96,-172.392 -14.28,-172.128 -15.048,-171.672C-14.4,-172.584 -13.752,-173.712 -13.248,-174.792C-10.704,-174.888 -7.8,-175.08 -5.52,-175.44L-5.52,-177.6C-7.656,-177.24 -10.104,-177.024 -12.432,-176.904C-12.096,-177.936 -11.928,-178.8 -11.784,-179.448L-14.256,-179.64ZM-14.544,-151.08L-21.168,-151.08L-21.168,-149.328L-14.544,-149.328L-14.544,-151.08ZM-13.704,-147.84L-22.44,-147.84L-22.44,-146.064L-13.704,-146.064L-13.704,-147.84ZM-14.544,-144.504L-21.312,-144.504L-21.312,-142.776L-14.544,-142.776L-14.544,-144.504ZM-21.312,-139.512L-14.544,-139.512L-14.544,-141.24L-21.312,-141.24L-21.312,-139.512ZM-16.344,-132.672L-19.44,-132.672L-19.44,-136.128L-16.344,-136.128L-16.344,-132.672ZM-14.4,-137.928L-21.36,-137.928L-21.36,-129.864L-19.44,-129.864L-19.44,-130.896L-14.4,-130.896L-14.4,-137.928ZM-3.96,-132.864L-9.888,-132.864L-9.888,-136.536L-3.96,-136.536L-3.96,-132.864ZM-12,-129.864L-9.888,-129.864L-9.888,-130.872L-3.96,-130.872L-3.96,-129.96L-1.776,-129.96L-1.776,-138.552L-12,-138.552L-12,-129.864ZM-4.512,-145.128L-4.512,-142.08L-8.496,-142.08C-8.328,-142.992 -8.136,-144.024 -7.944,-145.128L-4.512,-145.128ZM-2.376,-142.08L-2.376,-147.024L-7.632,-147.024C-7.536,-147.744 -7.416,-148.44 -7.32,-149.136L-1.104,-149.136L-1.104,-151.08L-12.936,-151.08L-12.936,-149.136L-9.504,-149.136C-9.6,-148.464 -9.72,-147.744 -9.816,-147.024L-12.552,-147.024L-12.552,-145.128L-10.128,-145.128C-10.296,-144.048 -10.488,-142.992 -10.68,-142.08L-13.704,-142.08L-13.704,-140.112L-0.288,-140.112L-0.288,-142.08L-2.376,-142.08ZM-14.736,-121.824L-17.352,-121.92C-17.376,-121.296 -17.424,-120.504 -17.52,-119.712C-17.832,-117.576 -18.24,-114.36 -18.24,-112.152C-18.24,-110.592 -18.096,-109.2 -17.976,-108.312L-15.648,-108.48C-15.792,-109.632 -15.816,-110.4 -15.744,-111.192C-15.528,-114.288 -12.936,-118.512 -10.056,-118.512C-7.8,-118.512 -6.576,-116.136 -6.576,-112.44C-6.576,-106.632 -10.416,-104.712 -15.576,-103.944L-14.184,-101.784C-8.16,-102.888 -4.08,-105.888 -4.08,-112.464C-4.08,-117.528 -6.456,-120.696 -9.648,-120.696C-12.48,-120.696 -14.736,-118.152 -15.792,-116.016C-15.648,-117.504 -15.168,-120.36 -14.736,-121.824M-12.024,-93.144C-11.952,-92.784 -11.904,-92.064 -11.904,-91.656L-11.904,-90.24L-12.912,-90.24C-14.4,-90.24 -17.232,-90.48 -18.816,-90.744L-18.792,-88.584C-17.28,-88.392 -14.448,-88.176 -12.888,-88.176L-11.928,-88.176C-11.952,-87.24 -11.952,-86.232 -11.952,-85.296L-13.152,-85.296C-14.568,-85.296 -17.328,-85.44 -18.96,-85.728L-18.912,-83.496C-17.28,-83.304 -14.664,-83.184 -13.176,-83.184L-11.904,-83.184C-11.88,-82.32 -11.832,-81.36 -11.808,-80.448C-12.36,-80.496 -12.936,-80.544 -13.536,-80.544C-17.04,-80.544 -19.152,-79.008 -19.152,-76.752C-19.152,-74.376 -17.232,-73.08 -13.68,-73.08C-10.608,-73.08 -9.312,-74.664 -9.312,-76.488C-9.312,-76.8 -9.336,-77.232 -9.336,-77.688C-7.2,-76.824 -5.424,-75.48 -4.08,-74.256L-2.712,-76.368C-4.056,-77.472 -6.408,-79.128 -9.456,-79.968C-9.528,-81.024 -9.576,-82.152 -9.624,-83.232C-7.368,-83.304 -5.424,-83.472 -3.264,-83.736L-3.24,-85.968C-5.256,-85.68 -7.344,-85.464 -9.672,-85.368L-9.672,-88.272C-7.392,-88.368 -5.208,-88.584 -3.48,-88.8L-3.456,-90.96C-5.568,-90.624 -7.632,-90.408 -9.648,-90.312C-9.648,-90.84 -9.648,-91.248 -9.624,-91.536C-9.6,-92.208 -9.552,-92.712 -9.48,-93.144L-12.024,-93.144ZM-16.896,-76.872C-16.896,-77.832 -15.816,-78.6 -13.824,-78.6C-13.104,-78.6 -12.408,-78.528 -11.712,-78.408C-11.688,-77.856 -11.688,-77.4 -11.688,-77.064C-11.688,-75.576 -12.672,-75.192 -13.992,-75.192C-16.008,-75.192 -16.896,-75.864 -16.896,-76.872M-8.04,-63.816C-7.968,-63.384 -7.896,-62.424 -7.896,-61.896L-7.896,-58.848C-10.224,-58.656 -12.744,-58.416 -14.904,-58.2C-14.904,-59.304 -14.88,-60.288 -14.88,-60.96C-14.88,-61.8 -14.856,-62.448 -14.76,-63.096L-17.4,-63.096C-17.304,-62.328 -17.256,-61.656 -17.256,-60.84L-17.256,-57.984L-19.536,-57.768C-20.52,-57.672 -21.48,-57.624 -22.2,-57.624L-21.936,-55.2C-21.312,-55.296 -20.088,-55.464 -19.368,-55.56C-18.84,-55.632 -18.12,-55.704 -17.256,-55.8C-17.256,-53.52 -17.256,-51.12 -17.232,-50.112C-17.136,-46.224 -16.512,-44.928 -10.776,-44.928C-8.472,-44.928 -5.568,-45.144 -4.008,-45.336L-3.912,-47.88C-5.544,-47.592 -8.496,-47.304 -10.92,-47.304C-14.76,-47.304 -14.856,-48.024 -14.928,-50.472C-14.952,-51.408 -14.952,-53.736 -14.928,-56.04C-12.744,-56.256 -10.2,-56.52 -7.92,-56.688C-7.968,-55.344 -8.04,-54 -8.16,-53.28C-8.232,-52.776 -8.4,-52.704 -8.952,-52.704C-9.456,-52.704 -10.44,-52.848 -11.208,-53.016L-11.256,-50.928C-10.56,-50.808 -8.832,-50.592 -7.968,-50.592C-6.84,-50.592 -6.288,-50.904 -6.048,-52.032C-5.832,-53.088 -5.76,-55.08 -5.712,-56.856C-4.848,-56.904 -4.08,-56.952 -3.456,-56.952C-2.856,-56.976 -1.8,-57 -1.416,-57L-1.416,-59.304C-2.016,-59.256 -2.808,-59.208 -3.432,-59.184C-4.104,-59.136 -4.848,-59.088 -5.664,-59.04C-5.64,-59.952 -5.64,-60.96 -5.616,-61.968C-5.592,-62.52 -5.544,-63.432 -5.496,-63.816L-8.04,-63.816ZM-9.984,-34.32L-12.6,-35.352C-12.96,-34.536 -13.32,-33.888 -13.608,-33.288C-14.88,-31.032 -19.872,-21.408 -21.624,-16.656L-19.008,-15.792C-18.672,-16.992 -17.736,-19.704 -17.088,-21.096C-16.2,-22.968 -14.616,-24.768 -12.864,-24.768C-11.904,-24.768 -11.352,-24.192 -11.28,-23.256C-11.208,-22.128 -11.256,-20.256 -11.184,-18.936C-11.088,-17.4 -10.104,-15.816 -7.536,-15.816C-4.032,-15.816 -1.944,-18.456 -0.72,-22.368L-2.736,-24C-3.384,-21.312 -4.776,-18.36 -7.152,-18.36C-8.064,-18.36 -8.808,-18.768 -8.88,-19.824C-8.976,-20.928 -8.928,-22.752 -8.976,-23.976C-9.048,-25.896 -10.152,-26.952 -11.808,-26.952C-12.84,-26.952 -13.944,-26.616 -14.952,-25.824C-13.752,-28.008 -11.808,-31.512 -10.728,-33.168C-10.464,-33.576 -10.2,-34.008 -9.984,-34.32M-4.2,-7.392C-6.216,-7.392 -7.896,-5.712 -7.896,-3.696C-7.896,-1.656 -6.216,0 -4.2,0C-2.16,0 -0.504,-1.656 -0.504,-3.696C-0.504,-5.712 -2.16,-7.392 -4.2,-7.392M-4.2,-1.416C-5.424,-1.416 -6.456,-2.448 -6.456,-3.696C-6.456,-4.944 -5.424,-5.952 -4.2,-5.952C-2.928,-5.952 -1.92,-4.944 -1.92,-3.696C-1.92,-2.448 -2.928,-1.416 -4.2,-1.416" style="fill:rgb(36,24,19);fill-rule:nonzero;"/>
    </g>
    <g transform="matrix(5.833543,0,0,5.833543,2405.117443,633.525113)">
        <path d="M0,-94.752C-0.576,-95.328 -3.024,-97.704 -3.912,-98.472L-3.912,-99.552L0,-99.552L0,-101.664L-3.912,-101.664L-3.912,-105.6C-2.52,-105.96 -1.224,-106.368 -0.144,-106.824L-1.728,-108.48C-3.816,-107.52 -7.44,-106.704 -10.608,-106.2C-10.344,-105.72 -10.056,-104.976 -9.936,-104.496C-8.712,-104.664 -7.416,-104.856 -6.12,-105.12L-6.12,-101.664L-10.512,-101.664L-10.512,-99.552L-6.552,-99.552C-7.632,-96.936 -9.408,-93.96 -11.04,-92.304C-10.68,-91.728 -10.128,-90.792 -9.912,-90.168C-8.592,-91.68 -7.224,-94.032 -6.12,-96.432L-6.12,-86.64L-3.912,-86.64L-3.912,-96.144C-2.952,-95.064 -1.872,-93.768 -1.344,-93.024L0,-94.752ZM11.376,-87.336C10.896,-89.904 9.384,-93.912 7.824,-97.008L5.688,-96.36C6.504,-94.68 7.272,-92.736 7.896,-90.912C5.904,-90.672 3.888,-90.48 2.088,-90.288C3.432,-95.184 4.896,-102.048 5.736,-107.688L3.216,-108.096C2.544,-102.456 1.08,-95.04 -0.264,-90.072L-2.472,-89.856L-1.944,-87.504C0.888,-87.864 4.752,-88.368 8.496,-88.896C8.736,-88.056 8.904,-87.264 9.024,-86.592L11.376,-87.336ZM1.728,-65.568L-0.528,-65.76C-0.72,-64.8 -0.912,-63.816 -0.912,-62.832C-0.912,-60.48 1.176,-59.232 4.992,-59.232C6.792,-59.232 8.376,-59.376 9.648,-59.568L9.744,-61.968C8.184,-61.68 6.6,-61.488 5.016,-61.488C2.04,-61.488 1.392,-62.448 1.392,-63.504C1.392,-64.08 1.512,-64.824 1.728,-65.568M-0.96,-78.504L-3.816,-78.744C-3.768,-78.24 -3.816,-77.352 -3.912,-76.608C-3.96,-76.176 -4.08,-75.552 -4.2,-74.856C-5.016,-74.784 -5.808,-74.76 -6.528,-74.76C-7.44,-74.76 -8.256,-74.808 -9.432,-74.952L-9.36,-72.6C-8.52,-72.552 -7.656,-72.504 -6.576,-72.504C-6,-72.504 -5.352,-72.528 -4.68,-72.576C-4.848,-71.808 -5.04,-71.016 -5.232,-70.32C-6.12,-67.008 -7.848,-62.184 -9.264,-59.76L-6.624,-58.896C-5.376,-61.56 -3.768,-66.384 -2.928,-69.696C-2.664,-70.704 -2.424,-71.76 -2.184,-72.792C-0.576,-72.96 1.08,-73.248 2.544,-73.584L2.544,-75.912C1.176,-75.576 -0.264,-75.312 -1.704,-75.12C-1.584,-75.624 -1.488,-76.104 -1.416,-76.512C-1.32,-76.968 -1.128,-77.928 -0.96,-78.504M0.864,-71.376L0.864,-69.168C2.328,-69.336 3.792,-69.408 5.304,-69.408C6.72,-69.408 8.112,-69.288 9.312,-69.12L9.384,-71.4C8.064,-71.52 6.624,-71.592 5.256,-71.592C3.768,-71.592 2.136,-71.496 0.864,-71.376M-3.792,-49.872C-3.768,-49.176 -3.792,-48.6 -3.912,-47.736C-3.96,-47.376 -4.032,-46.944 -4.104,-46.464L-4.2,-46.464C-5.64,-46.464 -7.488,-46.632 -8.832,-46.872L-8.832,-44.544C-7.56,-44.4 -6.096,-44.328 -4.536,-44.304C-5.136,-41.664 -6.096,-38.4 -7.248,-36.12L-5.016,-35.352C-4.8,-35.76 -4.584,-36.072 -4.32,-36.408C-2.832,-38.256 -0.336,-39.216 2.424,-39.216C4.992,-39.216 6.312,-37.944 6.312,-36.36C6.312,-32.664 1.08,-31.896 -4.248,-32.664L-3.6,-30.24C3.744,-29.448 8.808,-31.344 8.808,-36.408C8.808,-39.288 6.456,-41.256 2.712,-41.256C0.456,-41.256 -1.584,-40.752 -3.576,-39.48C-3.144,-40.752 -2.664,-42.624 -2.28,-44.352C0.792,-44.496 4.56,-44.904 7.176,-45.36L7.128,-47.64C4.248,-47.016 0.936,-46.656 -1.824,-46.536C-1.728,-46.92 -1.656,-47.28 -1.608,-47.592C-1.464,-48.264 -1.32,-49.032 -1.128,-49.752L-3.792,-49.872ZM-7.848,-20.544C-7.872,-19.92 -7.968,-19.176 -8.04,-18.6C-8.328,-16.704 -9.072,-12.24 -9.072,-8.736C-9.072,-5.544 -8.64,-2.904 -8.16,-1.248L-6.048,-1.416C-6.072,-1.704 -6.096,-2.04 -6.096,-2.304C-6.12,-2.568 -6.048,-3.048 -5.976,-3.36C-5.736,-4.584 -4.944,-6.96 -4.296,-8.736L-5.496,-9.696C-5.88,-8.784 -6.36,-7.68 -6.72,-6.72C-6.84,-7.584 -6.888,-8.328 -6.888,-9.192C-6.888,-11.712 -6.144,-16.584 -5.736,-18.504C-5.64,-18.936 -5.424,-19.896 -5.256,-20.304L-7.848,-20.544ZM3.6,-20.52C3.696,-20.088 3.744,-19.416 3.744,-19.008L3.744,-16.248C3.096,-16.224 2.448,-16.2 1.8,-16.2C0.384,-16.2 -0.912,-16.272 -2.256,-16.416L-2.232,-14.184C-0.864,-14.088 0.408,-14.04 1.776,-14.04C2.424,-14.04 3.096,-14.04 3.744,-14.064C3.792,-12.24 3.888,-10.2 3.984,-8.568C3.384,-8.664 2.76,-8.712 2.088,-8.712C-1.056,-8.712 -2.952,-7.104 -2.952,-4.944C-2.952,-2.688 -1.056,-1.368 2.112,-1.368C5.4,-1.368 6.432,-3.216 6.432,-5.376L6.432,-5.472C7.512,-4.8 8.592,-3.912 9.696,-2.88L10.968,-4.896C9.792,-5.976 8.28,-7.152 6.336,-7.92C6.24,-9.72 6.12,-11.832 6.072,-14.184C7.44,-14.28 8.736,-14.424 9.96,-14.616L9.96,-16.944C8.76,-16.704 7.44,-16.512 6.072,-16.392C6.096,-17.472 6.12,-18.48 6.144,-19.056C6.168,-19.536 6.216,-20.064 6.288,-20.52L3.6,-20.52ZM4.08,-5.928C4.08,-4.44 3.528,-3.576 1.8,-3.576C0.288,-3.576 -0.744,-4.08 -0.744,-5.208C-0.744,-6.24 0.312,-6.888 1.896,-6.888C2.64,-6.888 3.36,-6.768 4.08,-6.576L4.08,-5.928ZM9.024,13.728L11.016,12C9.672,10.392 7.488,8.184 5.808,6.816L3.864,8.496C5.52,9.888 7.536,11.904 9.024,13.728" style="fill:rgb(36,24,19);fill-rule:nonzero;"/>
    </g>
    <g transform="matrix(5.833543,0,0,5.833543,3107.102684,1050.877786)">
        <path d="M0,-178.008L0.096,-175.56C0.72,-175.632 1.44,-175.704 2.04,-175.752C3.048,-175.824 6.6,-175.992 7.608,-176.064C6.144,-174.768 2.688,-171.792 0.384,-170.184C-0.84,-170.04 -2.664,-169.848 -3.936,-169.728L-3.696,-167.448C-1.08,-167.88 1.992,-168.24 4.344,-168.432C3.264,-167.664 2.064,-166.08 2.064,-164.328C2.064,-160.56 5.376,-158.76 11.256,-159L11.736,-161.448C10.872,-161.376 9.624,-161.352 8.28,-161.52C6.144,-161.76 4.464,-162.552 4.464,-164.688C4.464,-166.776 6.504,-168.528 8.736,-168.84C10.152,-169.032 12.624,-169.032 14.928,-168.912L14.904,-171.168C11.736,-171.168 7.512,-170.88 4.104,-170.52C5.88,-171.912 8.784,-174.336 10.512,-175.728C10.896,-176.064 11.616,-176.544 12.024,-176.808L10.536,-178.536C10.224,-178.44 9.744,-178.344 9.096,-178.296C7.728,-178.128 3.048,-177.912 2.016,-177.912C1.272,-177.912 0.648,-177.936 0,-178.008M2.448,-149.856L-0.576,-149.88C-0.384,-149.112 -0.312,-148.128 -0.312,-147.144C-0.312,-144.888 -0.552,-138.816 -0.552,-135.48C-0.552,-131.568 1.848,-130.032 5.448,-130.032C10.704,-130.032 13.872,-133.08 15.432,-135.312L13.728,-137.376C12.048,-134.88 9.6,-132.528 5.472,-132.528C3.432,-132.528 1.896,-133.392 1.896,-135.888C1.896,-139.152 2.088,-144.552 2.184,-147.144C2.232,-148.008 2.328,-148.992 2.448,-149.856M-4.152,-118.464L-3.888,-115.848C-1.272,-116.424 4.176,-117 6.576,-117.24C4.656,-116.016 2.472,-113.16 2.472,-109.608C2.472,-104.4 7.416,-101.928 12.024,-101.688L12.888,-104.256C8.976,-104.424 4.896,-105.816 4.896,-110.112C4.896,-112.896 7.104,-116.256 10.224,-117.168C11.448,-117.504 13.584,-117.504 14.88,-117.528L14.856,-119.928C13.248,-119.88 10.8,-119.736 8.28,-119.52C4.248,-119.184 -0.24,-118.752 -1.968,-118.584C-2.424,-118.536 -3.24,-118.488 -4.152,-118.464M16.416,-84.792L16.416,-87.096L6.744,-87.096C7.032,-89.472 7.056,-91.776 7.08,-93.72L4.656,-93.72C4.632,-91.8 4.656,-89.496 4.368,-87.096L-4.56,-87.096L-4.56,-84.792L3.96,-84.792C3,-80.448 0.672,-76.128 -5.04,-73.632C-4.416,-73.152 -3.696,-72.36 -3.336,-71.76C2.112,-74.328 4.704,-78.48 5.928,-82.824C7.8,-77.736 10.704,-73.848 15.192,-71.76C15.552,-72.432 16.296,-73.368 16.848,-73.848C12.312,-75.744 9.288,-79.8 7.656,-84.792L16.416,-84.792ZM13.584,-57.36L7.944,-57.36L7.944,-61.608L13.584,-61.608L13.584,-57.36ZM13.584,-50.976L7.944,-50.976L7.944,-55.296L13.584,-55.296L13.584,-50.976ZM15.768,-63.672L5.856,-63.672L5.856,-48.912L15.768,-48.912L15.768,-63.672ZM-1.584,-53.016C-1.536,-53.88 -1.536,-54.744 -1.536,-55.512L-1.536,-56.496L1.656,-56.496L1.656,-53.016L-1.584,-53.016ZM1.656,-58.608L-1.536,-58.608L-1.536,-61.968L1.656,-61.968L1.656,-58.608ZM3.744,-64.08L-3.6,-64.08L-3.6,-55.488C-3.6,-52.008 -3.72,-47.232 -5.304,-43.92C-4.752,-43.704 -3.84,-43.176 -3.408,-42.84C-2.376,-45.048 -1.92,-48.048 -1.704,-50.88L1.656,-50.88L1.656,-45.744C1.656,-45.408 1.536,-45.288 1.224,-45.288C0.912,-45.288 -0.048,-45.264 -1.056,-45.312C-0.768,-44.736 -0.504,-43.704 -0.432,-43.128C1.176,-43.128 2.184,-43.176 2.88,-43.56C3.552,-43.92 3.744,-44.592 3.744,-45.72L3.744,-64.08ZM4.464,-43.704L16.92,-43.704L16.92,-45.84L4.464,-45.84L4.464,-43.704ZM4.752,-32.352L4.776,-29.952C7.512,-29.688 11.952,-29.688 14.64,-29.952L14.64,-32.376C12.192,-32.04 7.464,-31.944 4.752,-32.352M6.096,-22.56L3.96,-22.776C3.696,-21.6 3.552,-20.712 3.552,-19.872C3.552,-17.568 5.424,-16.2 9.408,-16.2C11.952,-16.2 13.872,-16.368 15.384,-16.656L15.312,-19.176C13.344,-18.744 11.568,-18.576 9.48,-18.576C6.624,-18.576 5.784,-19.416 5.784,-20.472C5.784,-21.12 5.904,-21.744 6.096,-22.56M0.672,-34.056L-1.968,-34.272C-1.992,-33.672 -2.088,-32.928 -2.184,-32.328C-2.424,-30.432 -3.192,-26.448 -3.192,-22.944C-3.192,-19.752 -2.76,-16.992 -2.304,-15.336L-0.144,-15.48C-0.168,-15.768 -0.192,-16.104 -0.192,-16.368C-0.216,-16.632 -0.144,-17.088 -0.072,-17.448C0.144,-18.624 0.984,-21.12 1.608,-22.92L0.384,-23.856C0.024,-22.992 -0.456,-21.864 -0.84,-20.904C-0.936,-21.552 -0.984,-22.56 -0.984,-23.4C-0.984,-25.92 -0.216,-30.336 0.168,-32.256C0.264,-32.688 0.504,-33.624 0.672,-34.056M13.08,-6.864C11.064,-6.864 9.384,-5.184 9.384,-3.168C9.384,-1.128 11.064,0.528 13.08,0.528C15.12,0.528 16.776,-1.128 16.776,-3.168C16.776,-5.184 15.12,-6.864 13.08,-6.864M13.08,-0.888C11.856,-0.888 10.824,-1.92 10.824,-3.168C10.824,-4.416 11.856,-5.424 13.08,-5.424C14.352,-5.424 15.36,-4.416 15.36,-3.168C15.36,-1.92 14.352,-0.888 13.08,-0.888" style="fill:rgb(36,24,19);fill-rule:nonzero;"/>
    </g>
    <g transform="matrix(5.833543,0,0,5.833543,3326.770583,465.659077)">
        <path d="M0,-66.096C-0.168,-64.056 -0.456,-61.92 -1.056,-60.48C-0.648,-60.336 0.144,-59.976 0.48,-59.736C1.104,-61.272 1.512,-63.576 1.704,-65.808L0,-66.096ZM5.232,-67.896C5.376,-67.392 5.496,-66.936 5.568,-66.552L7.2,-67.224C6.984,-68.544 6.12,-70.56 5.28,-72.12L3.744,-71.544C4.032,-70.944 4.344,-70.296 4.608,-69.648L2.304,-69.528C3.672,-71.52 5.208,-74.088 6.408,-76.248L4.632,-77.016C4.152,-75.888 3.48,-74.544 2.76,-73.224C2.496,-73.608 2.208,-74.016 1.872,-74.424C2.592,-75.72 3.408,-77.592 4.08,-79.176L2.184,-79.8C1.848,-78.6 1.296,-76.992 0.72,-75.696C0.528,-75.888 0.336,-76.08 0.144,-76.272L-0.84,-74.736C0.072,-73.776 1.104,-72.504 1.752,-71.448C1.32,-70.728 0.888,-70.032 0.48,-69.432L-1.032,-69.36L-0.84,-67.392C0.096,-67.464 1.128,-67.536 2.232,-67.632L2.232,-57.816L4.08,-57.816L4.08,-67.776L5.232,-67.896ZM4.464,-65.688C4.944,-64.272 5.448,-62.448 5.592,-61.224L7.2,-61.752C7.008,-62.952 6.504,-64.752 5.976,-66.168L4.464,-65.688ZM16.416,-73.176L18.624,-73.176C18.36,-70.92 17.976,-68.856 17.424,-66.984C16.92,-68.784 16.56,-70.728 16.296,-72.744L16.416,-73.176ZM21.384,-73.176L21.384,-75.168L16.872,-75.168C17.136,-76.536 17.352,-77.976 17.52,-79.44L15.504,-79.704C15.24,-76.848 14.784,-74.064 13.992,-71.832C13.584,-72.912 13.032,-74.112 12.48,-75.096L10.872,-74.52C11.232,-73.848 11.592,-73.056 11.904,-72.288L9.288,-72.096C9.768,-73.416 10.248,-75.072 10.68,-76.536L14.304,-76.536L14.304,-78.384L6.408,-78.384L6.408,-76.536L8.496,-76.536C8.232,-75.048 7.8,-73.296 7.416,-71.976L6.192,-71.904L6.528,-69.984C8.232,-70.176 10.344,-70.392 12.48,-70.656C12.6,-70.32 12.672,-69.984 12.744,-69.696L13.08,-69.816C12.984,-69.672 12.888,-69.504 12.792,-69.36C13.224,-68.976 13.968,-68.208 14.256,-67.8C14.616,-68.376 14.952,-68.976 15.24,-69.648C15.552,-67.776 15.936,-66 16.44,-64.368C15.888,-63.144 15.192,-62.088 14.4,-61.176L14.328,-62.328L11.424,-61.872L11.424,-65.064L14.016,-65.064L14.016,-66.936L11.424,-66.936L11.424,-69.72L9.48,-69.72L9.48,-66.936L6.792,-66.936L6.792,-65.064L9.48,-65.064L9.48,-61.584C8.184,-61.392 6.984,-61.248 6.048,-61.128L6.528,-59.064C8.496,-59.4 11.04,-59.88 13.56,-60.36C13.08,-59.952 12.6,-59.616 12.048,-59.304C12.576,-58.92 13.224,-58.176 13.536,-57.72C15.096,-58.728 16.344,-60.144 17.352,-61.92C18.072,-60.264 18.96,-58.848 20.088,-57.768C20.4,-58.32 21.12,-59.112 21.576,-59.472C20.256,-60.576 19.2,-62.208 18.384,-64.152C19.416,-66.744 20.04,-69.816 20.376,-73.176L21.384,-73.176ZM2.304,-47.088L18.096,-47.088L18.096,-44.304L20.376,-44.304L20.376,-49.104L11.304,-49.104L11.304,-51.024L9.024,-51.024L9.024,-49.104L0.12,-49.104L0.12,-44.304L2.304,-44.304L2.304,-47.088ZM11.784,-44.688C10.872,-45.48 9.048,-46.44 7.608,-47.016L6.528,-45.744C7.992,-45.096 9.744,-44.04 10.632,-43.248L11.784,-44.688ZM2.52,-44.208C1.992,-42.6 0.936,-41.016 -0.6,-40.056L1.128,-38.904C2.808,-39.96 3.744,-41.76 4.368,-43.512L2.52,-44.208ZM13.392,-37.56C15.456,-37.56 16.056,-38.184 16.296,-40.728C15.744,-40.848 14.928,-41.112 14.472,-41.424C14.376,-39.624 14.208,-39.336 13.176,-39.336L9.192,-39.336C11.928,-40.872 14.352,-42.768 16.104,-45.12L14.184,-45.984C12.6,-43.824 10.248,-42.024 7.488,-40.632L7.488,-44.496L5.472,-44.496L5.472,-39.696C3.504,-38.856 1.344,-38.184 -0.84,-37.68C-0.432,-37.248 0.192,-36.336 0.432,-35.856C2.448,-36.408 4.464,-37.104 6.36,-37.944C6.888,-37.656 7.68,-37.56 8.832,-37.56L13.392,-37.56ZM16.368,-32.04L11.304,-32.04L11.304,-37.248L9.048,-37.248L9.048,-32.04L4.272,-32.04L4.272,-35.976L2.064,-35.976L2.064,-28.992L4.272,-28.992L4.272,-29.976L16.368,-29.976L16.368,-29.04L18.6,-29.04L18.6,-35.976L16.368,-35.976L16.368,-32.04ZM15.528,-42.984C17.064,-41.64 18.816,-39.72 19.56,-38.448L21.264,-39.648C20.472,-40.944 18.672,-42.792 17.136,-44.064L15.528,-42.984ZM9.096,-18.432L9.12,-16.032C11.856,-15.768 16.296,-15.768 18.984,-16.032L18.984,-18.456C16.536,-18.12 11.808,-18.024 9.096,-18.432M10.44,-8.64L8.304,-8.856C8.04,-7.68 7.896,-6.792 7.896,-5.952C7.896,-3.648 9.768,-2.28 13.752,-2.28C16.296,-2.28 18.216,-2.448 19.728,-2.736L19.656,-5.256C17.688,-4.824 15.912,-4.656 13.824,-4.656C10.968,-4.656 10.128,-5.496 10.128,-6.552C10.128,-7.2 10.248,-7.824 10.44,-8.64M5.016,-20.136L2.376,-20.352C2.352,-19.752 2.256,-19.008 2.16,-18.408C1.92,-16.512 1.152,-12.528 1.152,-9.024C1.152,-5.832 1.584,-3.072 2.04,-1.416L4.2,-1.56C4.176,-1.848 4.152,-2.184 4.152,-2.448C4.128,-2.712 4.2,-3.168 4.272,-3.528C4.488,-4.704 5.328,-7.2 5.952,-9L4.728,-9.936C4.368,-9.072 3.888,-7.944 3.504,-6.984C3.408,-7.632 3.36,-8.64 3.36,-9.48C3.36,-12 4.128,-16.416 4.512,-18.336C4.608,-18.768 4.848,-19.704 5.016,-20.136M19.032,13.704L21.024,11.976C19.68,10.368 17.496,8.16 15.816,6.792L13.872,8.472C15.528,9.864 17.544,11.88 19.032,13.704" style="fill:rgb(36,24,19);fill-rule:nonzero;"/>
    </g>
    <g transform="matrix(5.833543,0,0,5.833543,142.776097,-438.355762)">
        <path d="M603.24,90.504L593.088,90.504L593.088,88.392L603.24,88.392L603.24,90.504ZM593.088,92.232L603.24,92.232L603.24,94.464L593.088,94.464L593.088,92.232ZM590.856,97.176L593.088,97.176L593.088,96.336L603.24,96.336L603.24,97.128L605.592,97.128L605.592,86.496L590.856,86.496L590.856,97.176ZM602.04,79.2C601.704,80.232 601.128,81.6 600.672,82.464L601.728,82.728L594.384,82.728L595.536,82.464C595.344,81.576 594.84,80.208 594.192,79.2L602.04,79.2ZM602.928,82.728C603.432,81.864 604.008,80.664 604.56,79.488L603.216,79.2L607.536,79.2L607.536,77.184L599.16,77.184L599.16,75.144L596.808,75.144L596.808,77.184L588.768,77.184L588.768,79.2L593.376,79.2L591.912,79.488C592.488,80.472 592.968,81.768 593.184,82.728L587.424,82.728L587.424,84.72L608.664,84.72L608.664,82.728L602.928,82.728ZM607.944,115.44C607.944,110.52 604.368,106.56 598.704,106.56C592.824,106.56 588.216,111.096 588.216,116.328C588.216,120.264 590.328,122.88 592.656,122.88C595.008,122.88 596.928,120.216 598.344,115.416C599.016,113.184 599.424,110.904 599.712,108.768C603.384,109.224 605.472,111.96 605.472,115.344C605.472,119.16 602.784,121.368 599.76,122.064C599.184,122.184 598.488,122.304 597.672,122.4L599.064,124.584C604.8,123.768 607.944,120.288 607.944,115.44M590.568,116.112C590.568,113.208 593.04,109.512 597.288,108.84C597.024,110.904 596.616,113.04 596.04,114.912C594.936,118.536 593.808,120.072 592.728,120.072C591.744,120.072 590.568,118.824 590.568,116.112M590.88,149.184C590.88,147.504 592.368,145.416 594.432,144.168C594.432,145.968 594.624,147.84 594.936,149.496C593.904,150.168 592.896,150.528 592.104,150.528C591.264,150.528 590.88,150.048 590.88,149.184M596.52,143.208C597.552,142.872 598.824,142.584 600.24,142.584L600.384,142.584C599.472,144.888 598.224,146.616 596.856,147.936C596.64,146.664 596.52,145.296 596.52,143.736L596.52,143.208ZM595.152,133.848C595.176,134.184 595.152,134.688 595.104,135.096C595.056,135.576 594.984,136.104 594.936,136.704L593.664,136.704C592.44,136.704 590.472,136.512 589.56,136.368L589.632,138.552C590.64,138.6 592.488,138.72 593.592,138.72L594.72,138.72C594.624,139.752 594.552,140.856 594.48,141.96C591.24,143.472 588.672,146.616 588.672,149.64C588.672,151.8 589.992,152.784 591.6,152.784C592.872,152.784 594.216,152.328 595.416,151.656C595.536,152.064 595.632,152.448 595.752,152.808L597.936,152.16C597.72,151.56 597.552,150.96 597.36,150.336C599.352,148.68 601.176,146.184 602.472,142.896C604.44,143.52 605.472,144.984 605.472,146.616C605.472,149.328 603.192,151.56 598.8,152.04L600.048,154.008C605.664,153.144 607.776,150.072 607.776,146.712C607.776,144.048 605.976,141.912 603.12,141.072C603.264,140.64 603.456,140.04 603.6,139.752L601.272,139.176C601.248,139.608 601.128,140.28 601.008,140.712C600.792,140.688 600.576,140.688 600.336,140.688C599.16,140.688 597.816,140.88 596.592,141.216C596.664,140.328 596.736,139.464 596.832,138.648C599.712,138.504 602.832,138.192 605.232,137.784L605.208,135.6C602.712,136.2 600,136.512 597.072,136.632C597.168,136.056 597.24,135.504 597.336,135.048C597.408,134.712 597.504,134.328 597.648,133.92L595.152,133.848ZM595.104,178.896C595.104,178.176 595.8,177.552 596.784,177.552C598.344,177.552 599.352,178.728 599.544,180.456C599.04,180.528 598.488,180.552 597.888,180.552C596.232,180.552 595.104,179.928 595.104,178.896M591.624,163.896L591.72,166.344C592.248,166.272 592.872,166.224 593.424,166.176C594.672,166.128 598.704,165.936 599.928,165.888C598.752,166.944 596.04,169.176 594.72,170.256C593.352,171.408 590.424,173.856 588.6,175.368L590.304,177.096C593.088,174.144 595.296,172.392 599.064,172.392C602.016,172.392 604.176,173.976 604.176,176.208C604.176,177.912 603.312,179.16 601.704,179.88C601.392,177.648 599.712,175.776 596.784,175.776C594.456,175.776 592.896,177.36 592.896,179.088C592.896,181.224 595.08,182.688 598.32,182.688C603.6,182.688 606.6,179.976 606.6,176.232C606.6,172.944 603.696,170.52 599.736,170.52C598.824,170.52 597.864,170.64 596.928,170.928C598.608,169.56 601.512,167.112 602.712,166.224C603.192,165.864 603.696,165.528 604.176,165.216L602.88,163.512C602.64,163.584 602.208,163.656 601.368,163.728C600.096,163.848 594.744,163.992 593.496,163.992C592.968,163.992 592.224,163.968 591.624,163.896M592.8,198.696L589.92,198.696L589.92,193.872L592.8,193.872L592.8,198.696ZM589.92,200.664L592.8,200.664L592.8,205.728L589.92,205.728L589.92,200.664ZM594.912,191.856L587.856,191.856L587.856,209.736L589.92,209.736L589.92,207.72L594.912,207.72L594.912,191.856ZM596.64,205.608C597.792,206.856 599.04,208.56 599.544,209.712L601.44,208.56C600.912,207.408 599.592,205.776 598.44,204.576L596.64,205.608ZM609.096,199.608L609.096,197.64L603.264,197.64L603.264,195L608.208,195L608.208,193.056L603.264,193.056L603.264,190.32L601.032,190.32L601.032,193.056L596.232,193.056L596.232,195L601.032,195L601.032,197.64L595.32,197.64L595.32,199.608L604.128,199.608L604.128,202.008L595.392,202.008L595.392,203.976L604.128,203.976L604.128,209.832C604.128,210.168 604.008,210.264 603.624,210.288C603.264,210.288 601.944,210.288 600.6,210.24C600.912,210.864 601.224,211.728 601.32,212.328C603.192,212.328 604.416,212.304 605.256,211.968C606.048,211.632 606.312,211.032 606.312,209.88L606.312,203.976L608.88,203.976L608.88,202.008L606.312,202.008L606.312,199.608L609.096,199.608ZM594.936,223.44L590.4,223.44L590.4,221.784L594.936,221.784L594.936,223.44ZM590.4,225.024L594.936,225.024L594.936,226.8L590.4,226.8L590.4,225.024ZM597.048,228.456L597.048,220.104L588.192,220.104L588.192,241.176L590.4,241.176L590.4,228.456L597.048,228.456ZM601.08,225.024L605.76,225.024L605.76,226.848L601.08,226.848L601.08,225.024ZM605.76,223.44L601.08,223.44L601.08,221.784L605.76,221.784L605.76,223.44ZM595.536,235.296L600.408,235.296L600.408,237.288L595.536,237.288L595.536,235.296ZM600.408,233.664L595.536,233.664L595.536,231.792L600.408,231.792L600.408,233.664ZM608.016,220.104L598.944,220.104L598.944,228.504L605.76,228.504L605.76,238.368C605.76,238.776 605.64,238.896 605.208,238.92C604.824,238.92 603.672,238.944 602.496,238.896L602.496,230.112L593.496,230.112L593.496,240.168L595.536,240.168L595.536,238.968L602.016,238.968C602.304,239.592 602.616,240.552 602.712,241.152C604.728,241.152 606.048,241.128 606.888,240.768C607.752,240.384 608.016,239.664 608.016,238.392L608.016,220.104ZM595.176,248.976C595.128,249.84 594.936,250.824 594.648,251.784C594.168,251.808 593.688,251.808 593.256,251.808C592.128,251.808 590.448,251.712 589.2,251.52L589.2,253.752C590.52,253.848 592.152,253.896 593.136,253.896L593.808,253.896C592.848,255.888 591.24,258.192 588.504,260.76L590.544,262.272C591.312,261.264 592.008,260.424 592.68,259.752C593.664,258.816 595.152,258.048 596.568,258.048C597.408,258.048 598.176,258.408 598.512,259.224C595.8,260.616 592.944,262.464 592.944,265.344C592.944,268.272 595.656,269.088 599.184,269.088C601.296,269.088 604.032,268.896 605.712,268.68L605.784,266.28C603.72,266.664 601.152,266.88 599.256,266.88C596.88,266.88 595.368,266.544 595.368,264.984C595.368,263.592 596.616,262.512 598.656,261.408C598.632,262.56 598.608,263.904 598.536,264.72L600.792,264.72C600.768,263.568 600.744,261.72 600.72,260.376C602.352,259.608 603.888,259.008 605.088,258.552C605.808,258.264 606.816,257.88 607.488,257.688L606.528,255.48C605.784,255.864 605.088,256.176 604.296,256.512C603.192,257.016 601.968,257.496 600.528,258.192C600.072,256.896 598.848,256.224 597.384,256.224C596.472,256.224 595.152,256.488 594.384,256.944C595.032,256.032 595.68,254.904 596.184,253.824C598.728,253.728 601.632,253.536 603.912,253.176L603.912,251.016C601.776,251.376 599.328,251.592 597,251.712C597.336,250.68 597.504,249.816 597.648,249.168L595.176,248.976ZM604.272,281.328L601.248,281.328L601.248,279.936L604.272,279.936L604.272,281.328ZM604.272,284.208L601.248,284.208L601.248,282.792L604.272,282.792L604.272,284.208ZM591.528,282.792L594.36,282.792L594.36,284.208L591.528,284.208L591.528,282.792ZM591.528,279.936L594.36,279.936L594.36,281.328L591.528,281.328L591.528,279.936ZM599.328,284.208L596.28,284.208L596.28,282.792L599.328,282.792L599.328,284.208ZM599.328,281.328L596.28,281.328L596.28,279.936L599.328,279.936L599.328,281.328ZM606.408,278.4L601.248,278.4L601.248,276.72L599.328,276.72L599.328,278.4L596.28,278.4L596.28,276.72L594.36,276.72L594.36,278.4L589.44,278.4L589.44,285.744L606.408,285.744L606.408,278.4ZM608.376,286.776L587.736,286.776L587.736,288.408L608.376,288.408L608.376,286.776ZM601.392,294.24C601.056,294.96 600.552,295.848 600.144,296.424L600.6,296.592L595.152,296.592L595.752,296.376C595.536,295.776 595.104,294.936 594.624,294.24L601.392,294.24ZM592.584,290.976L603.36,290.976L603.36,292.728L592.584,292.728L592.584,290.976ZM602.256,296.592C602.664,295.992 603.12,295.272 603.528,294.528L602.712,294.24L605.664,294.24L605.664,289.464L590.4,289.464L590.4,294.24L593.568,294.24L592.536,294.552C592.92,295.152 593.328,295.92 593.592,296.592L587.424,296.592L587.424,298.32L608.688,298.32L608.688,296.592L602.256,296.592ZM596.832,307.008L594.048,306.744C594.072,308.256 593.856,310.032 593.52,311.784C592.176,311.88 590.928,311.976 590.16,312C589.368,312.024 588.672,312.072 587.88,312L588.12,314.568C588.768,314.448 589.848,314.328 590.448,314.232C590.976,314.184 591.96,314.064 593.016,313.944C592.176,317.16 590.472,322.224 588.144,325.392L590.568,326.352C592.896,322.632 594.576,317.184 595.44,313.704C596.328,313.632 597.096,313.584 597.576,313.584C599.064,313.584 599.976,313.92 599.976,315.936C599.976,318.384 599.64,321.36 598.92,322.824C598.488,323.76 597.84,323.952 597.024,323.952C596.376,323.952 595.08,323.76 594.12,323.472L594.504,325.944C595.296,326.112 596.424,326.28 597.312,326.28C598.944,326.28 600.168,325.824 600.936,324.24C601.944,322.224 602.28,318.456 602.28,315.672C602.28,312.384 600.552,311.472 598.272,311.472C597.744,311.472 596.904,311.52 595.92,311.592C596.16,310.488 596.352,309.336 596.496,308.64C596.592,308.136 596.712,307.512 596.832,307.008M604.944,309.36L602.712,310.344C604.392,312.336 606.288,317.16 606.936,319.896L609.312,318.816C608.544,316.344 606.384,311.328 604.944,309.36M596.904,338.136L596.928,340.536C599.664,340.8 604.104,340.8 606.792,340.536L606.792,338.112C604.344,338.448 599.616,338.544 596.904,338.136M598.248,347.928L596.112,347.712C595.848,348.888 595.704,349.776 595.704,350.616C595.704,352.92 597.576,354.288 601.56,354.288C604.104,354.288 606.024,354.12 607.536,353.832L607.464,351.312C605.496,351.744 603.72,351.912 601.632,351.912C598.776,351.912 597.936,351.072 597.936,350.016C597.936,349.368 598.056,348.744 598.248,347.928M592.824,336.432L590.184,336.216C590.16,336.816 590.064,337.56 589.968,338.16C589.728,340.056 588.96,344.04 588.96,347.544C588.96,350.736 589.392,353.496 589.848,355.152L592.008,355.008C591.984,354.72 591.96,354.384 591.96,354.12C591.936,353.856 592.008,353.4 592.08,353.04C592.296,351.864 593.136,349.368 593.76,347.568L592.536,346.632C592.176,347.496 591.696,348.624 591.312,349.584C591.216,348.936 591.168,347.928 591.168,347.088C591.168,344.568 591.936,340.152 592.32,338.232C592.416,337.8 592.656,336.864 592.824,336.432M606.84,370.272L608.832,368.544C607.488,366.936 605.304,364.728 603.624,363.36L601.68,365.04C603.336,366.432 605.352,368.448 606.84,370.272" style="fill:rgb(36,24,19);fill-rule:nonzero;"/>
    </g>
</svg>
