<?xml version="1.0" encoding="UTF-8" standalone="no"?>
<!DOCTYPE svg PUBLIC "-//W3C//DTD SVG 1.1//EN" "http://www.w3.org/Graphics/SVG/1.1/DTD/svg11.dtd">
<svg width="100%" height="100%" viewBox="0 0 3840 2160" version="1.1" xmlns="http://www.w3.org/2000/svg" xmlns:xlink="http://www.w3.org/1999/xlink" xml:space="preserve" xmlns:serif="http://www.serif.com/" style="fill-rule:evenodd;clip-rule:evenodd;stroke-linejoin:round;stroke-miterlimit:2;">
    <g transform="matrix(9.242144,0,0,9.242144,9.759704,2051.977819)">
        <path d="M0,-1.584L1.176,0.792C4.344,-0.168 7.512,-1.56 10.032,-2.928L10.032,5.424C10.032,6.408 9.96,7.728 9.888,8.256L12.864,8.256C12.744,7.728 12.696,6.408 12.696,5.424L12.696,-4.536C15.072,-6.096 17.328,-7.944 19.152,-9.792L17.136,-11.712C15.504,-9.768 12.96,-7.536 10.464,-6C7.8,-4.344 4.2,-2.712 0,-1.584M40.152,-9.072L38.472,-8.352C39.288,-7.2 40.032,-5.856 40.68,-4.488L42.408,-5.256C41.856,-6.36 40.776,-8.136 40.152,-9.072M43.296,-10.32L41.616,-9.552C42.48,-8.448 43.248,-7.128 43.92,-5.76L45.624,-6.576C45.072,-7.68 43.944,-9.432 43.296,-10.32M24.456,0.816L26.736,3.144C27.12,2.592 27.672,1.824 28.176,1.128C29.232,-0.192 31.104,-2.712 32.16,-4.008C32.904,-4.944 33.384,-5.016 34.248,-4.176C35.208,-3.24 37.392,-0.888 38.784,0.72C40.272,2.448 42.336,4.92 44.016,6.936L46.104,4.728C44.256,2.736 41.832,0.12 40.2,-1.608C38.784,-3.12 36.816,-5.184 35.304,-6.6C33.576,-8.256 32.304,-7.992 30.96,-6.408C29.4,-4.536 27.408,-1.992 26.28,-0.864C25.608,-0.192 25.128,0.264 24.456,0.816M54.168,-10.512L52.416,-8.64C54.192,-7.44 57.168,-4.824 58.416,-3.552L60.312,-5.496C58.968,-6.888 55.848,-9.384 54.168,-10.512M51.696,5.544L53.304,8.016C57.024,7.344 60.072,5.928 62.496,4.44C66.24,2.136 69.192,-1.128 70.92,-4.248L69.456,-6.864C67.992,-3.792 64.992,-0.192 61.128,2.184C58.824,3.6 55.704,4.944 51.696,5.544M81.624,5.16C81.624,6.096 81.552,7.392 81.432,8.232L84.384,8.232C84.264,7.368 84.192,5.904 84.192,5.16L84.192,-2.256C86.832,-1.392 90.744,0.12 93.264,1.488L94.344,-1.128C91.944,-2.304 87.384,-4.008 84.192,-4.968L84.192,-8.712C84.192,-9.552 84.288,-10.608 84.36,-11.4L81.408,-11.4C81.552,-10.584 81.624,-9.48 81.624,-8.712L81.624,5.16ZM109.608,-12.864C107.808,-9.672 103.872,-5.808 99.744,-3.552C100.224,-3.072 100.872,-2.28 101.16,-1.752C105.168,-4.104 108.936,-7.632 110.856,-10.632C112.968,-7.536 117.072,-3.984 120.792,-1.848C121.176,-2.52 121.728,-3.264 122.28,-3.84C118.488,-5.64 114.432,-9.096 111.888,-12.864L109.608,-12.864ZM112.296,1.128L118.944,1.128L118.944,-0.888L112.296,-0.888L112.296,-6.264L109.944,-6.264L109.944,6.576L105.888,6.576L105.888,-2.04L103.704,-2.04L103.704,6.576L100.872,6.576L100.872,8.592L121.128,8.592L121.128,6.576L112.296,6.576L112.296,1.128ZM143.88,5.688L128.52,5.688L128.52,-7.152L126.336,-7.152L126.336,9.24L128.52,9.24L128.52,7.8L143.88,7.8L143.88,9.192L146.064,9.192L146.064,-7.152L143.88,-7.152L143.88,5.688ZM139.896,-2.376L137.064,-2.376L137.064,-4.992L139.896,-4.992L139.896,-2.376ZM139.896,2.04L137.064,2.04L137.064,-0.6L139.896,-0.6L139.896,2.04ZM132.312,-0.6L135.12,-0.6L135.12,2.04L132.312,2.04L132.312,-0.6ZM132.312,-4.992L135.12,-4.992L135.12,-2.376L132.312,-2.376L132.312,-4.992ZM125.592,-11.256L125.592,-9.192L134.976,-9.192L134.976,-6.84L130.44,-6.84L130.44,3.888L141.84,3.888L141.84,-6.84L137.208,-6.84L137.208,-9.192L146.76,-9.192L146.76,-11.256L125.592,-11.256ZM155.664,11.688L157.584,11.688L164.256,-11.808L162.336,-11.808L155.664,11.688ZM191.256,-10.032C191.256,-10.848 191.928,-11.544 192.744,-11.544C193.56,-11.544 194.256,-10.848 194.256,-10.032C194.256,-9.216 193.56,-8.544 192.744,-8.544C191.928,-8.544 191.256,-9.216 191.256,-10.032M189.984,-10.032C189.984,-9.816 190.008,-9.6 190.056,-9.384C189.672,-9.336 189.312,-9.336 189.024,-9.336L177.384,-9.336C176.592,-9.336 175.464,-9.432 174.792,-9.504L174.792,-6.816C175.416,-6.864 176.376,-6.912 177.384,-6.912L189.192,-6.912C188.856,-4.728 187.824,-1.656 186.192,0.456C184.2,2.952 181.488,5.016 176.808,6.168L178.872,8.424C183.216,7.056 186.216,4.752 188.4,1.92C190.344,-0.648 191.448,-4.44 192,-6.888C192.024,-7.032 192.072,-7.2 192.096,-7.344C192.312,-7.296 192.528,-7.272 192.744,-7.272C194.28,-7.272 195.528,-8.496 195.528,-10.032C195.528,-11.544 194.28,-12.792 192.744,-12.792C191.208,-12.792 189.984,-11.544 189.984,-10.032M200.424,-9.336C200.472,-8.712 200.472,-7.872 200.472,-7.248L200.472,4.536C200.472,5.496 200.424,7.416 200.4,7.632L203.016,7.632C202.992,7.512 202.992,6.936 202.992,6.288L215.424,6.288C215.4,6.96 215.4,7.512 215.376,7.632L217.992,7.632C217.992,7.44 217.944,5.376 217.944,4.536L217.944,-7.248C217.944,-7.92 217.944,-8.664 217.992,-9.312C217.2,-9.288 216.336,-9.288 215.784,-9.288L202.752,-9.288C202.152,-9.288 201.384,-9.288 200.424,-9.336M202.968,-6.888L215.424,-6.888L215.424,3.888L202.968,3.888L202.968,-6.888ZM227.064,-10.416L227.064,-7.944C227.712,-7.992 228.6,-8.04 229.416,-8.04L237.504,-8.04C238.272,-8.04 239.136,-7.992 239.904,-7.944L239.904,-10.416C239.16,-10.32 238.248,-10.272 237.504,-10.272L229.392,-10.272C228.6,-10.272 227.784,-10.32 227.064,-10.416M224.232,-4.344L224.232,-1.848C224.904,-1.896 225.696,-1.92 226.416,-1.92L233.352,-1.92C233.256,0.24 232.944,2.136 231.912,3.744C230.976,5.208 229.248,6.6 227.472,7.32L229.68,8.952C231.768,7.872 233.592,6.096 234.456,4.464C235.368,2.736 235.848,0.624 235.944,-1.92L242.136,-1.92C242.76,-1.92 243.576,-1.896 244.152,-1.872L244.152,-4.344C243.528,-4.248 242.64,-4.224 242.136,-4.224L226.416,-4.224C225.672,-4.224 224.904,-4.272 224.232,-4.344M241.224,-12.24L239.688,-11.592C240.336,-10.68 241.104,-9.24 241.584,-8.28L243.168,-8.952C242.688,-9.888 241.824,-11.376 241.224,-12.24M243.936,-13.272L242.4,-12.624C243.072,-11.712 243.864,-10.344 244.368,-9.312L245.928,-10.008C245.496,-10.872 244.584,-12.36 243.936,-13.272M265.44,-4.056L263.616,-4.944C263.376,-4.824 262.608,-4.752 262.176,-4.752L255.36,-4.752C254.76,-4.752 253.848,-4.8 253.248,-4.872L253.248,-2.376C253.896,-2.4 254.664,-2.448 255.384,-2.448L262.512,-2.448C262.44,-1.104 261.816,3.024 261.48,5.064L253.176,5.064C252.408,5.064 251.64,5.016 251.016,4.944L251.016,7.416C251.832,7.392 252.384,7.368 253.176,7.368L266.112,7.368C266.688,7.368 267.696,7.392 268.152,7.416L268.152,4.968C267.6,5.016 266.616,5.064 266.064,5.064L264.048,5.064C264.384,2.832 265.056,-1.656 265.248,-3.192C265.296,-3.432 265.368,-3.792 265.44,-4.056M275.064,-3.336L275.064,-0.36C275.88,-0.432 277.32,-0.48 278.64,-0.48L291.696,-0.48C292.752,-0.48 293.856,-0.384 294.384,-0.36L294.384,-3.336C293.784,-3.288 292.848,-3.192 291.696,-3.192L278.64,-3.192C277.344,-3.192 275.856,-3.288 275.064,-3.336M317.496,-8.784L315.936,-9.936C315.528,-9.792 314.736,-9.696 313.848,-9.696L304.944,-9.696C304.2,-9.696 302.808,-9.792 302.328,-9.864L302.328,-7.152C302.712,-7.176 304.008,-7.296 304.944,-7.296L313.752,-7.296C313.176,-5.424 311.568,-2.784 309.936,-0.96C307.56,1.704 303.96,4.584 300.072,6.072L302.016,8.112C305.448,6.504 308.688,3.936 311.256,1.2C313.632,3.408 316.032,6.048 317.616,8.208L319.728,6.336C318.24,4.512 315.336,1.416 312.864,-0.696C314.544,-2.856 315.96,-5.568 316.8,-7.536C316.968,-7.944 317.328,-8.544 317.496,-8.784" style="fill:rgb(36,24,19);fill-rule:nonzero;"/>
    </g>
    <g transform="matrix(9.242144,0,0,9.242144,91.16451,1768.05915)">
        <path d="M0,-24.144C-1.8,-20.952 -5.736,-17.088 -9.864,-14.832C-9.384,-14.352 -8.736,-13.56 -8.448,-13.032C-4.44,-15.384 -0.672,-18.912 1.248,-21.912C3.36,-18.816 7.464,-15.264 11.184,-13.128C11.568,-13.8 12.12,-14.544 12.672,-15.12C8.88,-16.92 4.824,-20.376 2.28,-24.144L0,-24.144ZM2.688,-10.152L9.336,-10.152L9.336,-12.168L2.688,-12.168L2.688,-17.544L0.336,-17.544L0.336,-4.704L-3.72,-4.704L-3.72,-13.32L-5.904,-13.32L-5.904,-4.704L-8.736,-4.704L-8.736,-2.688L11.52,-2.688L11.52,-4.704L2.688,-4.704L2.688,-10.152ZM34.272,-5.592L18.912,-5.592L18.912,-18.432L16.728,-18.432L16.728,-2.04L18.912,-2.04L18.912,-3.48L34.272,-3.48L34.272,-2.088L36.456,-2.088L36.456,-18.432L34.272,-18.432L34.272,-5.592ZM30.288,-13.656L27.456,-13.656L27.456,-16.272L30.288,-16.272L30.288,-13.656ZM30.288,-9.24L27.456,-9.24L27.456,-11.88L30.288,-11.88L30.288,-9.24ZM22.704,-11.88L25.512,-11.88L25.512,-9.24L22.704,-9.24L22.704,-11.88ZM22.704,-16.272L25.512,-16.272L25.512,-13.656L22.704,-13.656L22.704,-16.272ZM15.984,-22.536L15.984,-20.472L25.368,-20.472L25.368,-18.12L20.832,-18.12L20.832,-7.392L32.232,-7.392L32.232,-18.12L27.6,-18.12L27.6,-20.472L37.152,-20.472L37.152,-22.536L15.984,-22.536ZM46.056,0.408L47.976,0.408L54.648,-23.088L52.728,-23.088L46.056,0.408ZM68.112,-23.928C66.96,-20.448 65.088,-16.944 63.024,-14.688C63.408,-14.184 64.056,-12.96 64.272,-12.432C64.872,-13.152 65.448,-13.92 66.048,-14.784L66.048,-2.064L68.184,-2.064L68.184,-18.48C68.952,-20.064 69.672,-21.696 70.2,-23.328L68.112,-23.928ZM85.152,-17.352L85.152,-19.464L78.288,-19.464L78.288,-23.928L76.104,-23.928L76.104,-19.464L69.672,-19.464L69.672,-17.352L74.928,-17.352C73.512,-13.416 71.16,-9.504 68.616,-7.392C69.096,-7.008 69.864,-6.24 70.2,-5.688C72.552,-7.944 74.64,-11.568 76.104,-15.504L76.104,-8.28L72.528,-8.28L72.528,-6.264L76.104,-6.264L76.104,-2.16L78.288,-2.16L78.288,-6.264L81.84,-6.264L81.84,-8.28L78.288,-8.28L78.288,-15.648C79.704,-11.736 81.768,-7.992 84.024,-5.76C84.432,-6.36 85.176,-7.128 85.728,-7.536C83.256,-9.624 80.904,-13.488 79.536,-17.352L85.152,-17.352ZM89.472,-3.36C90.408,-4.656 90.672,-6.888 90.768,-9.024L89.496,-9.288C89.4,-7.248 89.112,-5.208 88.272,-4.008L89.472,-3.36ZM91.176,-8.832C91.392,-7.416 91.512,-5.64 91.44,-4.44L92.568,-4.608C92.616,-5.76 92.496,-7.56 92.232,-8.952L91.176,-8.832ZM95.376,-12.336L95.376,-14.208L97.752,-14.208L97.752,-15.96L95.376,-15.96L95.376,-17.784L97.752,-17.784L97.752,-18C98.112,-17.544 98.544,-16.776 98.76,-16.296C99.432,-16.704 100.104,-17.208 100.728,-17.76L100.728,-16.392L103.392,-16.392L103.392,-14.736L99.144,-14.736L99.144,-8.664L102.84,-8.664C102.192,-6.792 100.776,-4.992 97.848,-3.6C98.184,-4.776 98.376,-7.104 98.568,-11.52C98.592,-11.76 98.592,-12.336 98.592,-12.336L95.376,-12.336ZM91.536,-14.208L93.552,-14.208L93.552,-12.336L91.536,-12.336L91.536,-14.208ZM93.552,-15.96L91.536,-15.96L91.536,-17.784L93.552,-17.784L93.552,-15.96ZM93.552,-19.536L91.536,-19.536L91.536,-21.264L93.552,-21.264L93.552,-19.536ZM101.16,-18.144C102.456,-19.368 103.584,-20.784 104.28,-22.08C105.096,-20.736 106.32,-19.32 107.664,-18.144L101.16,-18.144ZM107.856,-13.056L107.856,-10.344L105.264,-10.344C105.36,-11.088 105.384,-11.832 105.384,-12.576L105.384,-13.056L107.856,-13.056ZM100.992,-10.344L100.992,-13.056L103.392,-13.056L103.392,-12.6C103.392,-11.856 103.368,-11.112 103.248,-10.344L100.992,-10.344ZM109.776,-8.664L109.776,-14.736L105.384,-14.736L105.384,-16.392L108.072,-16.392L108.072,-17.784C108.648,-17.304 109.248,-16.872 109.824,-16.512C110.112,-17.136 110.568,-17.928 110.952,-18.432C108.84,-19.536 106.608,-21.768 105.192,-24.048L103.224,-24.048C102.192,-21.936 100.008,-19.416 97.752,-18.072L97.752,-19.536L95.376,-19.536L95.376,-21.264L98.256,-21.264L98.256,-23.112L89.664,-23.112L89.664,-10.56L96.648,-10.56C96.6,-9.192 96.528,-8.112 96.456,-7.224C96.216,-7.992 95.784,-8.952 95.376,-9.696L94.416,-9.384C94.92,-8.4 95.424,-7.128 95.592,-6.264L96.408,-6.576C96.264,-5.016 96.096,-4.296 95.88,-4.032C95.712,-3.792 95.52,-3.744 95.256,-3.744C94.944,-3.744 94.296,-3.744 93.552,-3.816C93.84,-3.36 94.008,-2.592 94.056,-2.064C94.872,-2.04 95.664,-2.04 96.168,-2.112C96.72,-2.16 97.128,-2.352 97.488,-2.808C97.608,-2.952 97.728,-3.168 97.824,-3.48C98.256,-3.12 98.856,-2.424 99.072,-1.992C102.168,-3.48 103.776,-5.4 104.592,-7.44C105.6,-5.04 107.208,-3.12 109.392,-2.064C109.704,-2.592 110.352,-3.432 110.808,-3.816C108.648,-4.704 106.992,-6.48 106.056,-8.664L109.776,-8.664ZM94.776,-5.4C94.704,-6.408 94.32,-8.016 93.888,-9.216L92.88,-9.024C93.264,-7.8 93.624,-6.192 93.696,-5.16L94.776,-5.4ZM117.456,-21.696L117.456,-19.224C118.104,-19.272 118.992,-19.32 119.808,-19.32L127.896,-19.32C128.664,-19.32 129.528,-19.272 130.296,-19.224L130.296,-21.696C129.552,-21.6 128.64,-21.552 127.896,-21.552L119.784,-21.552C118.992,-21.552 118.176,-21.6 117.456,-21.696M114.624,-15.624L114.624,-13.128C115.296,-13.176 116.088,-13.2 116.808,-13.2L123.744,-13.2C123.648,-11.04 123.336,-9.144 122.304,-7.536C121.368,-6.072 119.64,-4.68 117.864,-3.96L120.072,-2.328C122.16,-3.408 123.984,-5.184 124.848,-6.816C125.76,-8.544 126.24,-10.656 126.336,-13.2L132.528,-13.2C133.152,-13.2 133.968,-13.176 134.544,-13.152L134.544,-15.624C133.92,-15.528 133.032,-15.504 132.528,-15.504L116.808,-15.504C116.064,-15.504 115.296,-15.552 114.624,-15.624M131.616,-23.52L130.08,-22.872C130.728,-21.96 131.496,-20.52 131.976,-19.56L133.56,-20.232C133.08,-21.168 132.216,-22.656 131.616,-23.52M134.328,-24.552L132.792,-23.904C133.464,-22.992 134.256,-21.624 134.76,-20.592L136.32,-21.288C135.888,-22.152 134.976,-23.64 134.328,-24.552M157.272,-22.368L155.904,-21.936C156.384,-21 156.864,-19.632 157.224,-18.6L158.616,-19.08C158.304,-20.016 157.704,-21.48 157.272,-22.368M159.696,-23.136L158.328,-22.704C158.808,-21.768 159.312,-20.424 159.672,-19.368L161.064,-19.824C160.752,-20.784 160.152,-22.224 159.696,-23.136M155.088,-14.352L155.088,-15.168L157.344,-15.168C158.496,-15.168 159.36,-15.144 159.72,-15.096L159.72,-17.64C159.264,-17.568 158.496,-17.496 157.32,-17.496L155.088,-17.496L155.088,-20.28C155.088,-21.24 155.184,-22.032 155.208,-22.368L152.496,-22.368C152.544,-22.032 152.616,-21.24 152.616,-20.28L152.616,-17.496L146.304,-17.496L146.304,-20.256C146.304,-21.144 146.376,-21.864 146.424,-22.2L143.736,-22.2C143.808,-21.576 143.856,-20.856 143.856,-20.28L143.856,-17.496L141.504,-17.496C140.4,-17.496 139.32,-17.64 139.008,-17.688L139.008,-15.096C139.392,-15.12 140.376,-15.168 141.504,-15.168L143.856,-15.168L143.856,-11.568C143.856,-10.584 143.784,-9.576 143.736,-9.24L146.4,-9.24C146.376,-9.576 146.304,-10.608 146.304,-11.568L146.304,-15.168L152.616,-15.168L152.616,-14.208C152.616,-7.848 150.504,-5.784 146.016,-4.128L148.056,-2.232C153.672,-4.728 155.088,-8.16 155.088,-14.352M164.952,-12.864L166.128,-10.488C169.296,-11.448 172.464,-12.84 174.984,-14.208L174.984,-5.856C174.984,-4.872 174.912,-3.552 174.84,-3.024L177.816,-3.024C177.696,-3.552 177.648,-4.872 177.648,-5.856L177.648,-15.816C180.024,-17.376 182.28,-19.224 184.104,-21.072L182.088,-22.992C180.456,-21.048 177.912,-18.816 175.416,-17.28C172.752,-15.624 169.152,-13.992 164.952,-12.864M193.92,-21.792L192.168,-19.92C193.944,-18.72 196.92,-16.104 198.168,-14.832L200.064,-16.776C198.72,-18.168 195.6,-20.664 193.92,-21.792M191.448,-5.736L193.056,-3.264C196.776,-3.936 199.824,-5.352 202.248,-6.84C205.992,-9.144 208.944,-12.408 210.672,-15.528L209.208,-18.144C207.744,-15.072 204.744,-11.472 200.88,-9.096C198.576,-7.68 195.456,-6.336 191.448,-5.736" style="fill:rgb(36,24,19);fill-rule:nonzero;"/>
    </g>
    <g transform="matrix(9.242144,0,0,9.242144,0,358.670055)">
        <path d="M16.44,101.808L6.288,101.808L6.288,99.696L16.44,99.696L16.44,101.808ZM6.288,103.536L16.44,103.536L16.44,105.768L6.288,105.768L6.288,103.536ZM4.056,108.48L6.288,108.48L6.288,107.64L16.44,107.64L16.44,108.432L18.792,108.432L18.792,97.8L4.056,97.8L4.056,108.48ZM15.24,90.504C14.904,91.536 14.328,92.904 13.872,93.768L14.928,94.032L7.584,94.032L8.736,93.768C8.544,92.88 8.04,91.512 7.392,90.504L15.24,90.504ZM16.128,94.032C16.632,93.168 17.208,91.968 17.76,90.792L16.416,90.504L20.736,90.504L20.736,88.488L12.36,88.488L12.36,86.448L10.008,86.448L10.008,88.488L1.968,88.488L1.968,90.504L6.576,90.504L5.112,90.792C5.688,91.776 6.168,93.072 6.384,94.032L0.624,94.032L0.624,96.024L21.864,96.024L21.864,94.032L16.128,94.032ZM44.832,87.624C43.896,88.872 42.24,90.504 41.016,91.512L42.672,92.592C43.944,91.632 45.504,90.168 46.752,88.776L44.832,87.624ZM31.416,91.464C30.648,90.336 28.968,88.872 27.528,87.888L25.992,89.184C27.432,90.24 29.064,91.776 29.784,92.88L31.416,91.464ZM31.08,93.624C28.944,94.8 26.808,96 25.368,96.696L26.472,98.544C28.032,97.632 29.952,96.504 31.68,95.424L31.08,93.624ZM34.008,94.272L38.808,94.272L38.808,96.384L34.008,96.384L34.008,94.272ZM34.008,90.552L38.808,90.552L38.808,92.64L34.008,92.64L34.008,90.552ZM47.016,101.904L47.016,99.936L37.512,99.936L37.512,98.112L40.968,98.112L40.968,95.04C42.792,96.024 45.024,97.488 46.104,98.472L47.496,96.792C46.296,95.76 43.848,94.32 42.048,93.432L40.968,94.656L40.968,88.824L37.08,88.824C37.32,88.2 37.608,87.48 37.872,86.76L35.424,86.424C35.304,87.12 35.064,88.032 34.848,88.824L31.944,88.824L31.944,98.112L35.256,98.112L35.256,99.936L25.896,99.936L25.896,101.904L33.336,101.904C31.272,103.8 28.2,105.432 25.344,106.296C25.824,106.752 26.496,107.592 26.832,108.144C29.856,107.064 33.048,105.096 35.256,102.744L35.256,108.432L37.512,108.432L37.512,102.816C39.744,105.072 42.984,106.968 46.032,107.976C46.368,107.4 47.04,106.56 47.544,106.104C44.592,105.288 41.448,103.752 39.408,101.904L47.016,101.904ZM52.536,93.984C52.92,93.384 53.28,92.616 53.592,91.8L56.4,91.8L56.4,93.984L52.536,93.984ZM58.512,91.8L63.096,91.8L63.096,89.784L58.512,89.784L58.512,86.592L56.4,86.592L56.4,89.784L54.312,89.784C54.528,89.016 54.744,88.2 54.936,87.408L52.848,86.976C52.392,89.256 51.6,91.632 50.544,93.216C51.072,93.408 51.96,93.72 52.416,93.984L50.76,93.984L50.76,96.024L56.4,96.024L56.4,98.16L51.792,98.16L51.792,106.56L53.784,106.56L53.784,100.152L56.4,100.152L56.4,108.48L58.512,108.48L58.512,100.152L61.296,100.152L61.296,104.424C61.296,104.664 61.224,104.736 60.984,104.736C60.744,104.76 60.024,104.76 59.16,104.736C59.448,105.264 59.712,106.08 59.76,106.632C61.008,106.656 61.92,106.632 62.544,106.296C63.168,105.96 63.312,105.384 63.312,104.472L63.312,98.16L58.512,98.16L58.512,96.024L64.032,96.024L64.032,93.984L58.512,93.984L58.512,91.8ZM67.56,88.56L65.496,88.56L65.496,101.832L67.56,101.832L67.56,88.56ZM69.72,86.784L69.72,105.648C69.72,106.032 69.6,106.152 69.216,106.152C68.808,106.176 67.512,106.176 66.168,106.128C66.48,106.776 66.792,107.808 66.888,108.408C68.688,108.408 70.032,108.36 70.8,107.976C71.592,107.592 71.88,106.968 71.88,105.624L71.88,86.784L69.72,86.784ZM81.408,86.544C80.112,90.048 77.976,93.552 75.696,95.808C76.08,96.312 76.728,97.56 76.944,98.112C77.616,97.416 78.288,96.624 78.912,95.76L78.912,108.432L81.168,108.432L81.168,92.232C82.08,90.624 82.896,88.896 83.544,87.216L81.408,86.544ZM97.896,92.52L97.896,90.384L88.248,90.384C88.704,89.376 89.112,88.32 89.496,87.288L87.36,86.712C86.208,90.168 84.288,93.624 82.176,95.832C82.68,96.168 83.544,96.96 83.904,97.344C85.056,96.072 86.16,94.392 87.168,92.52L88.512,92.52L88.512,108.456L90.792,108.456L90.792,102.888L97.656,102.888L97.656,100.8L90.792,100.8L90.792,97.608L97.32,97.608L97.32,95.568L90.792,95.568L90.792,92.52L97.896,92.52Z" style="fill:rgb(36,24,19);fill-rule:nonzero;"/>
    </g>
    <g transform="matrix(9.242144,0,0,9.242144,29.500924,942.255083)">
        <path d="M0,-15.264L0,-12.6C0.624,-12.648 1.848,-12.696 2.784,-12.696L13.992,-12.696L13.992,-1.992L2.496,-1.992C1.464,-1.992 0.408,-2.064 -0.288,-2.112L-0.288,0.6C0.408,0.552 1.608,0.504 2.592,0.504L13.968,0.504C13.968,1.008 13.944,1.464 13.944,1.8L16.68,1.8C16.632,1.272 16.584,0.096 16.584,-0.744L16.584,-13.152C16.584,-13.776 16.608,-14.64 16.632,-15.168C16.2,-15.144 15.36,-15.12 14.712,-15.12L2.784,-15.12C1.992,-15.12 0.84,-15.192 0,-15.264M26.832,-16.44L25.08,-14.568C26.856,-13.368 29.832,-10.752 31.08,-9.48L32.976,-11.424C31.632,-12.816 28.512,-15.312 26.832,-16.44M24.36,-0.384L25.968,2.088C29.688,1.416 32.736,-0 35.16,-1.488C38.904,-3.792 41.856,-7.056 43.584,-10.176L42.12,-12.792C40.656,-9.72 37.656,-6.12 33.792,-3.744C31.488,-2.328 28.368,-0.984 24.36,-0.384M51.456,-16.608L51.456,-14.136C52.128,-14.184 53.016,-14.208 53.808,-14.208L63.48,-14.208C64.224,-14.208 65.112,-14.184 65.88,-14.136L65.88,-16.608C65.112,-16.512 64.224,-16.44 63.48,-16.44L53.784,-16.44C53.016,-16.44 52.176,-16.512 51.456,-16.608M48.624,-10.512L48.624,-8.04C49.272,-8.088 50.088,-8.112 50.808,-8.112L57.744,-8.112C57.648,-5.952 57.336,-4.032 56.304,-2.424C55.344,-0.96 53.64,0.408 51.864,1.152L54.072,2.76C56.16,1.704 57.984,-0.072 58.848,-1.704C59.76,-3.456 60.24,-5.568 60.336,-8.112L66.504,-8.112C67.128,-8.112 67.968,-8.088 68.52,-8.04L68.52,-10.512C67.92,-10.44 67.008,-10.392 66.504,-10.392L50.808,-10.392C50.064,-10.392 49.296,-10.44 48.624,-10.512M77.232,-16.44L75.48,-14.568C77.256,-13.368 80.232,-10.752 81.48,-9.48L83.376,-11.424C82.032,-12.816 78.912,-15.312 77.232,-16.44M74.76,-0.384L76.368,2.088C80.088,1.416 83.136,-0 85.56,-1.488C89.304,-3.792 92.256,-7.056 93.984,-10.176L92.52,-12.792C91.056,-9.72 88.056,-6.12 84.192,-3.744C81.888,-2.328 78.768,-0.984 74.76,-0.384M107.952,-16.896L105.624,-16.104C106.272,-14.76 107.616,-11.136 108.024,-9.696L110.4,-10.536C109.968,-11.976 108.528,-15.72 107.952,-16.896M118.752,-15.192L115.944,-15.984C115.488,-12.36 114.024,-8.4 112.152,-6.024C109.728,-2.952 106.08,-0.696 102.72,0.264L104.808,2.376C108.216,1.152 111.744,-1.296 114.24,-4.584C116.208,-7.2 117.528,-10.776 118.248,-13.608C118.368,-14.064 118.536,-14.688 118.752,-15.192M101.28,-15.432L98.88,-14.568C99.48,-13.416 101.112,-9.432 101.592,-7.896L104.016,-8.784C103.44,-10.392 101.952,-14.016 101.28,-15.432M124.944,-11.16C125.328,-11.76 125.688,-12.528 126,-13.344L128.808,-13.344L128.808,-11.16L124.944,-11.16ZM130.92,-13.344L135.504,-13.344L135.504,-15.36L130.92,-15.36L130.92,-18.552L128.808,-18.552L128.808,-15.36L126.72,-15.36C126.936,-16.128 127.152,-16.944 127.344,-17.736L125.256,-18.168C124.8,-15.888 124.008,-13.512 122.952,-11.928C123.48,-11.736 124.368,-11.424 124.824,-11.16L123.168,-11.16L123.168,-9.12L128.808,-9.12L128.808,-6.984L124.2,-6.984L124.2,1.416L126.192,1.416L126.192,-4.992L128.808,-4.992L128.808,3.336L130.92,3.336L130.92,-4.992L133.704,-4.992L133.704,-0.72C133.704,-0.48 133.632,-0.408 133.392,-0.408C133.152,-0.384 132.432,-0.384 131.568,-0.408C131.856,0.12 132.12,0.936 132.168,1.488C133.416,1.512 134.328,1.488 134.952,1.152C135.576,0.816 135.72,0.24 135.72,-0.672L135.72,-6.984L130.92,-6.984L130.92,-9.12L136.44,-9.12L136.44,-11.16L130.92,-11.16L130.92,-13.344ZM139.968,-16.584L137.904,-16.584L137.904,-3.312L139.968,-3.312L139.968,-16.584ZM142.128,-18.36L142.128,0.504C142.128,0.888 142.008,1.008 141.624,1.008C141.216,1.032 139.92,1.032 138.576,0.984C138.888,1.632 139.2,2.664 139.296,3.264C141.096,3.264 142.44,3.216 143.208,2.832C144,2.448 144.288,1.824 144.288,0.48L144.288,-18.36L142.128,-18.36ZM153.816,-18.6C152.52,-15.096 150.384,-11.592 148.104,-9.336C148.488,-8.832 149.136,-7.584 149.352,-7.032C150.024,-7.728 150.696,-8.52 151.32,-9.384L151.32,3.288L153.576,3.288L153.576,-12.912C154.488,-14.52 155.304,-16.248 155.952,-17.928L153.816,-18.6ZM170.304,-12.624L170.304,-14.76L160.656,-14.76C161.112,-15.768 161.52,-16.824 161.904,-17.856L159.768,-18.432C158.616,-14.976 156.696,-11.52 154.584,-9.312C155.088,-8.976 155.952,-8.184 156.312,-7.8C157.464,-9.072 158.568,-10.752 159.576,-12.624L160.92,-12.624L160.92,3.312L163.2,3.312L163.2,-2.256L170.064,-2.256L170.064,-4.344L163.2,-4.344L163.2,-7.536L169.728,-7.536L169.728,-9.576L163.2,-9.576L163.2,-12.624L170.304,-12.624Z" style="fill:rgb(36,24,19);fill-rule:nonzero;"/>
    </g>
    <g transform="matrix(9.242144,0,0,9.242144,155.268022,491.534196)">
        <path d="M0,-2.64L0,-3.456L2.28,-3.456C3.432,-3.456 4.272,-3.432 4.656,-3.384L4.656,-5.928C4.2,-5.856 3.432,-5.784 2.256,-5.784L0,-5.784L0,-8.568C0,-9.528 0.096,-10.296 0.144,-10.656L-2.568,-10.656C-2.52,-10.32 -2.448,-9.528 -2.448,-8.568L-2.448,-5.784L-8.784,-5.784L-8.784,-8.544C-8.784,-9.432 -8.688,-10.152 -8.64,-10.464L-11.352,-10.464C-11.256,-9.84 -11.208,-9.144 -11.208,-8.544L-11.208,-5.784L-13.56,-5.784C-14.664,-5.784 -15.744,-5.904 -16.056,-5.976L-16.056,-3.36C-15.672,-3.408 -14.688,-3.456 -13.56,-3.456L-11.208,-3.456L-11.208,0.144C-11.208,1.152 -11.304,2.136 -11.328,2.472L-8.664,2.472C-8.712,2.136 -8.784,1.128 -8.784,0.144L-8.784,-3.456L-2.448,-3.456L-2.448,-2.496C-2.448,3.864 -4.56,5.928 -9.048,7.584L-7.008,9.504C-1.392,6.984 0,3.552 0,-2.64M20.928,-11.184L18.024,-11.184C18.168,-10.32 18.192,-9.792 18.192,-9.192L18.192,-7.128L12.96,-7.128C12.072,-7.128 11.376,-7.176 10.632,-7.248C10.704,-6.696 10.728,-5.832 10.728,-5.304L10.728,-1.104C10.728,-0.576 10.68,0.12 10.632,0.624L13.248,0.624C13.176,0.216 13.152,-0.48 13.152,-0.96L13.152,-4.896L25.92,-4.896C25.656,-2.808 24.96,-0.192 23.712,1.728C22.272,3.864 19.872,5.496 17.664,6.24C16.8,6.576 15.696,6.888 14.784,7.032L16.752,9.312C21.072,8.136 24.528,5.664 26.376,2.328C27.648,0.096 28.32,-2.616 28.68,-4.704C28.752,-5.16 28.92,-5.928 29.088,-6.336L27.432,-7.368C27.072,-7.248 26.592,-7.128 25.632,-7.128L20.784,-7.128L20.784,-9.192C20.784,-9.792 20.832,-10.32 20.928,-11.184M38.424,-9.672L36.672,-7.8C38.448,-6.6 41.424,-3.984 42.672,-2.712L44.568,-4.656C43.224,-6.048 40.104,-8.544 38.424,-9.672M35.952,6.384L37.56,8.856C41.28,8.184 44.328,6.768 46.752,5.28C50.496,2.976 53.448,-0.288 55.176,-3.408L53.712,-6.024C52.248,-2.952 49.248,0.648 45.384,3.024C43.08,4.44 39.96,5.784 35.952,6.384M74.04,-9.312L72.432,-8.616C73.248,-7.464 73.92,-6.312 74.544,-4.944L76.224,-5.688C75.696,-6.816 74.688,-8.376 74.04,-9.312M77.064,-10.56L75.456,-9.816C76.296,-8.688 76.968,-7.584 77.664,-6.216L79.32,-7.032C78.744,-8.112 77.712,-9.672 77.064,-10.56M65.136,6.336C65.136,7.248 65.064,8.568 64.944,9.408L67.872,9.408C67.776,8.544 67.704,7.08 67.704,6.336C67.704,5.544 67.704,2.232 67.68,-1.08C70.32,-0.216 74.232,1.296 76.776,2.64L77.832,0.048C75.456,-1.128 70.848,-2.856 67.68,-3.792L67.68,-7.536C67.68,-8.4 67.8,-9.432 67.872,-10.224L64.92,-10.224C65.064,-9.432 65.136,-8.304 65.136,-7.536L65.136,6.336ZM102.552,-9.192C102.552,-10.008 103.224,-10.704 104.04,-10.704C104.856,-10.704 105.552,-10.008 105.552,-9.192C105.552,-8.376 104.856,-7.704 104.04,-7.704C103.224,-7.704 102.552,-8.376 102.552,-9.192M101.28,-9.192C101.28,-8.976 101.304,-8.76 101.352,-8.544C100.968,-8.496 100.608,-8.496 100.32,-8.496L88.68,-8.496C87.888,-8.496 86.76,-8.592 86.088,-8.664L86.088,-5.976C86.712,-6.024 87.672,-6.072 88.68,-6.072L100.488,-6.072C100.152,-3.888 99.12,-0.816 97.488,1.296C95.496,3.792 92.784,5.856 88.104,7.008L90.168,9.264C94.512,7.896 97.512,5.592 99.696,2.76C101.64,0.192 102.744,-3.6 103.296,-6.048C103.32,-6.192 103.368,-6.36 103.392,-6.504C103.608,-6.456 103.824,-6.432 104.04,-6.432C105.576,-6.432 106.824,-7.656 106.824,-9.192C106.824,-10.704 105.576,-11.952 104.04,-11.952C102.504,-11.952 101.28,-10.704 101.28,-9.192M111.72,-8.496C111.768,-7.872 111.768,-7.032 111.768,-6.408L111.768,5.376C111.768,6.336 111.72,8.256 111.696,8.472L114.312,8.472C114.288,8.352 114.288,7.776 114.288,7.128L126.72,7.128C126.696,7.8 126.696,8.352 126.672,8.472L129.288,8.472C129.288,8.28 129.24,6.216 129.24,5.376L129.24,-6.408C129.24,-7.08 129.24,-7.824 129.288,-8.472C128.496,-8.448 127.632,-8.448 127.08,-8.448L114.048,-8.448C113.448,-8.448 112.68,-8.448 111.72,-8.496M114.264,-6.048L126.72,-6.048L126.72,4.728L114.264,4.728L114.264,-6.048ZM138.36,-9.576L138.36,-7.104C139.008,-7.152 139.896,-7.2 140.712,-7.2L148.8,-7.2C149.568,-7.2 150.432,-7.152 151.2,-7.104L151.2,-9.576C150.456,-9.48 149.544,-9.432 148.8,-9.432L140.688,-9.432C139.896,-9.432 139.08,-9.48 138.36,-9.576M135.528,-3.504L135.528,-1.008C136.2,-1.056 136.992,-1.08 137.712,-1.08L144.648,-1.08C144.552,1.08 144.24,2.976 143.208,4.584C142.272,6.048 140.544,7.44 138.768,8.16L140.976,9.792C143.064,8.712 144.888,6.936 145.752,5.304C146.664,3.576 147.144,1.464 147.24,-1.08L153.432,-1.08C154.056,-1.08 154.872,-1.056 155.448,-1.032L155.448,-3.504C154.824,-3.408 153.936,-3.384 153.432,-3.384L137.712,-3.384C136.968,-3.384 136.2,-3.432 135.528,-3.504M152.52,-11.4L150.984,-10.752C151.632,-9.84 152.4,-8.4 152.88,-7.44L154.464,-8.112C153.984,-9.048 153.12,-10.536 152.52,-11.4M155.232,-12.432L153.696,-11.784C154.368,-10.872 155.16,-9.504 155.664,-8.472L157.224,-9.168C156.792,-10.032 155.88,-11.52 155.232,-12.432M176.736,-3.216L174.912,-4.104C174.672,-3.984 173.904,-3.912 173.472,-3.912L166.656,-3.912C166.056,-3.912 165.144,-3.96 164.544,-4.032L164.544,-1.536C165.192,-1.56 165.96,-1.608 166.68,-1.608L173.808,-1.608C173.736,-0.264 173.112,3.864 172.776,5.904L164.472,5.904C163.704,5.904 162.936,5.856 162.312,5.784L162.312,8.256C163.128,8.232 163.68,8.208 164.472,8.208L177.408,8.208C177.984,8.208 178.992,8.232 179.448,8.256L179.448,5.808C178.896,5.856 177.912,5.904 177.36,5.904L175.344,5.904C175.68,3.672 176.352,-0.816 176.544,-2.352C176.592,-2.592 176.664,-2.952 176.736,-3.216M186.36,-2.496L186.36,0.48C187.176,0.408 188.616,0.36 189.936,0.36L202.992,0.36C204.048,0.36 205.152,0.456 205.68,0.48L205.68,-2.496C205.08,-2.448 204.144,-2.352 202.992,-2.352L189.936,-2.352C188.64,-2.352 187.152,-2.448 186.36,-2.496M228.792,-7.944L227.232,-9.096C226.824,-8.952 226.032,-8.856 225.144,-8.856L216.24,-8.856C215.496,-8.856 214.104,-8.952 213.624,-9.024L213.624,-6.312C214.008,-6.336 215.304,-6.456 216.24,-6.456L225.048,-6.456C224.472,-4.584 222.864,-1.944 221.232,-0.12C218.856,2.544 215.256,5.424 211.368,6.912L213.312,8.952C216.744,7.344 219.984,4.776 222.552,2.04C224.928,4.248 227.328,6.888 228.912,9.048L231.024,7.176C229.536,5.352 226.632,2.256 224.16,0.144C225.84,-2.016 227.256,-4.728 228.096,-6.696C228.264,-7.104 228.624,-7.704 228.792,-7.944" style="fill:rgb(36,24,19);fill-rule:nonzero;"/>
    </g>
    <g transform="matrix(9.242144,0,0,9.242144,14.417745,18.18854)">
        <path d="M0,17.424L2.784,17.424L2.784,9.384L10.344,9.384L10.344,17.424L13.128,17.424L13.128,-0.264L10.344,-0.264L10.344,6.96L2.784,6.96L2.784,-0.264L0,-0.264L0,17.424ZM22.344,7.824C22.92,5.904 23.472,3.96 23.976,1.944L24.096,1.944C24.624,3.936 25.152,5.904 25.752,7.824L26.448,10.2L21.624,10.2L22.344,7.824ZM16.632,17.424L19.464,17.424L20.976,12.384L27.12,12.384L28.608,17.424L31.56,17.424L25.704,-0.264L22.488,-0.264L16.632,17.424ZM35.088,17.424L45.36,17.424L45.36,15.072L37.872,15.072L37.872,-0.264L35.088,-0.264L35.088,17.424ZM61.415,17.736C62.927,17.736 64.487,17.184 65.711,16.104L64.559,14.28C63.767,14.952 62.783,15.48 61.679,15.48C59.495,15.48 57.959,13.632 57.959,10.824C57.959,8.04 59.543,6.168 61.775,6.168C62.663,6.168 63.407,6.552 64.127,7.2L65.495,5.4C64.535,4.56 63.311,3.888 61.631,3.888C58.151,3.888 55.103,6.432 55.103,10.824C55.103,15.216 57.839,17.736 61.415,17.736M72.504,17.736C74.088,17.736 75.504,16.944 76.704,15.912L76.8,15.912L77.016,17.424L79.272,17.424L79.272,9.48C79.272,5.976 77.76,3.888 74.472,3.888C72.36,3.888 70.512,4.752 69.144,5.616L70.176,7.488C71.304,6.768 72.6,6.144 73.992,6.144C75.936,6.144 76.488,7.488 76.512,9.024C71.016,9.624 68.616,11.088 68.616,13.92C68.616,16.248 70.224,17.736 72.504,17.736M73.344,15.552C72.168,15.552 71.28,15.024 71.28,13.728C71.28,12.24 72.6,11.232 76.512,10.776L76.512,14.016C75.432,15 74.496,15.552 73.344,15.552M111.503,1.2L109.991,-0.216C109.607,-0.12 108.527,-0.048 107.999,-0.048L94.583,-0.048C93.623,-0.048 92.639,-0.144 91.751,-0.264L91.751,2.4C92.783,2.328 93.623,2.256 94.583,2.256L107.735,2.256C107.039,3.624 104.951,6 102.839,7.224L104.831,8.832C107.399,7.008 109.679,3.96 110.711,2.208C110.903,1.92 111.287,1.464 111.503,1.2M101.807,4.392L99.071,4.392C99.191,5.088 99.215,5.664 99.215,6.312C99.215,10.296 98.663,13.32 95.231,15.528C94.463,16.08 93.623,16.464 92.927,16.704L95.135,18.504C101.447,15.264 101.807,10.656 101.807,4.392M116.423,6.72L116.423,9.696C117.239,9.624 118.679,9.576 119.999,9.576L133.055,9.576C134.111,9.576 135.215,9.672 135.743,9.696L135.743,6.72C135.143,6.768 134.207,6.864 133.055,6.864L119.999,6.864C118.703,6.864 117.215,6.768 116.423,6.72M144.311,-0.624L144.311,1.848C144.983,1.8 145.871,1.776 146.663,1.776L156.335,1.776C157.079,1.776 157.967,1.8 158.735,1.848L158.735,-0.624C157.967,-0.528 157.079,-0.456 156.335,-0.456L146.639,-0.456C145.871,-0.456 145.031,-0.528 144.311,-0.624M141.479,5.472L141.479,7.944C142.127,7.896 142.943,7.872 143.663,7.872L150.599,7.872C150.503,10.032 150.191,11.952 149.159,13.56C148.199,15.024 146.495,16.392 144.719,17.136L146.927,18.744C149.015,17.688 150.839,15.912 151.703,14.28C152.615,12.528 153.095,10.416 153.191,7.872L159.359,7.872C159.983,7.872 160.823,7.896 161.375,7.944L161.375,5.472C160.775,5.544 159.863,5.592 159.359,5.592L143.663,5.592C142.919,5.592 142.151,5.544 141.479,5.472M167.255,10.944L168.407,13.2C170.807,12.432 173.567,11.256 175.631,10.176L175.631,17.088C175.631,17.856 175.583,18.984 175.535,19.392L178.319,19.392C178.223,18.984 178.199,17.856 178.199,17.088L178.199,8.664C180.335,7.248 182.399,5.52 183.599,4.248L181.727,2.424C180.479,3.96 178.175,6 175.895,7.416C173.951,8.592 170.399,10.224 167.255,10.944M209.255,1.272L207.695,0.12C207.287,0.264 206.495,0.36 205.607,0.36L196.703,0.36C195.959,0.36 194.567,0.264 194.087,0.192L194.087,2.904C194.471,2.88 195.767,2.76 196.703,2.76L205.511,2.76C204.935,4.632 203.327,7.272 201.695,9.096C199.319,11.76 195.719,14.64 191.831,16.128L193.775,18.168C197.207,16.56 200.447,13.992 203.015,11.256C205.391,13.464 207.791,16.104 209.375,18.264L211.487,16.392C209.999,14.568 207.095,11.472 204.623,9.36C206.303,7.2 207.719,4.488 208.559,2.52C208.727,2.112 209.087,1.512 209.255,1.272M222.743,15.216C222.743,16.152 222.671,17.448 222.551,18.288L225.503,18.288C225.383,17.424 225.311,15.96 225.311,15.216L225.311,7.8C227.951,8.664 231.863,10.176 234.383,11.544L235.463,8.928C233.063,7.752 228.503,6.048 225.311,5.088L225.311,1.344C225.311,0.504 225.407,-0.552 225.479,-1.344L222.527,-1.344C222.671,-0.528 222.743,0.576 222.743,1.344L222.743,15.216ZM262.631,2.256L260.735,0.696C260.327,0.84 259.655,0.912 258.887,0.912L245.015,0.912C244.199,0.912 243.071,0.816 242.423,0.72L242.423,3.408C242.927,3.36 244.055,3.264 245.015,3.264L258.503,3.264C257.327,5.328 254.807,8.544 251.639,10.968C250.031,9.552 248.231,8.088 247.319,7.416L245.351,9.024C246.695,9.96 249.311,12.264 250.751,13.68C252.287,15.264 254.231,17.424 255.191,18.72L257.399,16.944C256.439,15.792 254.879,14.112 253.463,12.696C257.135,9.816 260.207,5.928 261.935,3.096C262.103,2.856 262.367,2.568 262.631,2.256M278.807,-1.968L276.071,-1.968C276.167,-1.416 276.215,-0.528 276.215,0.192L276.215,1.608L271.751,1.608C270.935,1.608 269.591,1.56 268.775,1.464L268.775,3.96C269.519,3.912 270.935,3.864 271.799,3.864L281.207,3.864C280.439,4.944 278.711,6.6 276.695,7.896C274.559,9.288 271.511,10.896 266.927,11.952L268.391,14.184C271.343,13.32 273.935,12.264 276.167,11.04L276.167,15.768C276.167,16.656 276.095,17.904 275.999,18.6L278.735,18.6C278.687,17.856 278.615,16.656 278.615,15.768L278.615,9.48C280.727,7.968 282.671,6.024 283.895,4.608C284.327,4.128 284.951,3.456 285.455,2.928L283.871,1.416C283.415,1.536 282.791,1.608 282.167,1.608L278.663,1.608L278.663,0.192C278.663,-0.504 278.735,-1.416 278.807,-1.968M286.247,14.472L287.831,12.384C285.551,10.848 284.279,10.128 282.047,8.928L280.487,10.728C282.647,11.904 284.159,12.888 286.247,14.472M292.823,6.72L292.823,9.696C293.639,9.624 295.079,9.576 296.399,9.576L309.455,9.576C310.511,9.576 311.615,9.672 312.143,9.696L312.143,6.72C311.543,6.768 310.607,6.864 309.455,6.864L296.399,6.864C295.103,6.864 293.615,6.768 292.823,6.72M333.023,-0.72L331.391,-0.024C332.231,1.128 332.927,2.376 333.551,3.744L335.231,3.024C334.679,1.896 333.671,0.216 333.023,-0.72M336.239,-1.872L334.583,-1.176C335.423,-0.048 336.167,1.152 336.839,2.52L338.519,1.776C337.919,0.672 336.911,-0.984 336.239,-1.872M322.703,-1.128L321.335,0.96C322.799,1.8 325.367,3.48 326.591,4.368L328.031,2.304C326.879,1.488 324.191,-0.288 322.703,-1.128M318.719,15.984L320.135,18.456C322.319,18.048 325.679,16.896 328.103,15.504C331.991,13.224 335.327,10.152 337.487,6.888L336.023,4.344C334.103,7.752 330.839,10.968 326.831,13.248C324.311,14.64 321.383,15.528 318.719,15.984M319.031,4.32L317.687,6.384C319.199,7.2 321.767,8.832 323.015,9.744L324.407,7.608C323.279,6.816 320.543,5.136 319.031,4.32M360.671,-0.12L357.887,-1.104C357.767,-0.528 357.551,0.336 357.359,0.864C356.663,2.832 355.775,4.968 354.359,7.056C352.439,5.592 349.775,3.744 347.759,2.472L346.175,4.392C348.551,5.856 351.047,7.704 352.799,9.12C350.447,12.024 347.543,14.52 343.463,16.464L345.575,18.36C349.703,16.152 352.583,13.416 354.767,10.752C356.759,12.48 358.559,14.184 360.287,16.176L362.207,14.064C360.551,12.264 358.487,10.392 356.351,8.64C357.887,6.384 359.039,3.816 359.807,1.824C359.999,1.296 360.407,0.36 360.671,-0.12M371.687,-0.456L369.935,1.416C371.711,2.616 374.687,5.232 375.935,6.504L377.831,4.56C376.487,3.168 373.367,0.672 371.687,-0.456M369.215,15.6L370.823,18.072C374.543,17.4 377.591,15.984 380.015,14.496C383.759,12.192 386.711,8.928 388.439,5.808L386.975,3.192C385.511,6.264 382.511,9.864 378.647,12.24C376.343,13.656 373.223,15 369.215,15.6M399.143,15.216C399.143,16.152 399.071,17.448 398.951,18.288L401.903,18.288C401.783,17.424 401.711,15.96 401.711,15.216L401.711,7.8C404.351,8.664 408.263,10.176 410.783,11.544L411.863,8.928C409.463,7.752 404.903,6.048 401.711,5.088L401.711,1.344C401.711,0.504 401.807,-0.552 401.879,-1.344L398.927,-1.344C399.071,-0.528 399.143,0.576 399.143,1.344L399.143,15.216Z" style="fill:rgb(36,24,19);fill-rule:nonzero;"/>
    </g>
</svg>
